<?xml version="1.0" encoding="UTF-8" standalone="no"?>
<!-- Created with Inkscape (http://www.inkscape.org/) -->

<svg
   version="1.1"
   id="svg1"
   width="133.63582"
   height="73.184784"
   viewBox="0 0 133.63582 73.184784"
   xmlns="http://www.w3.org/2000/svg"
   xmlns:svg="http://www.w3.org/2000/svg">
  <defs
     id="defs1">
    <clipPath
       clipPathUnits="userSpaceOnUse"
       id="clipPath2">
      <path
         d="M 81.250008,40.625004 H 525.00007 V 281.25003 H 81.250008 Z"
         transform="matrix(0.44299498,0,0,0.44299498,205.10897,95.118966)"
         clip-rule="evenodd"
         id="path2" />
    </clipPath>
    <clipPath
       clipPathUnits="userSpaceOnUse"
       id="clipPath4">
      <path
         d="M 81.250008,40.625004 H 525.00007 V 281.25003 H 81.250008 Z"
         transform="matrix(30.933235,0,0,-30.933235,-3728.7638,2594.9495)"
         clip-rule="evenodd"
         id="path4" />
    </clipPath>
    <clipPath
       clipPathUnits="userSpaceOnUse"
       id="clipPath6">
      <path
         d="M 81.250008,40.625004 H 525.00007 V 281.25003 H 81.250008 Z"
         transform="matrix(0.44299498,0,0,0.44299498,205.10897,95.118966)"
         clip-rule="evenodd"
         id="path6" />
    </clipPath>
    <clipPath
       clipPathUnits="userSpaceOnUse"
       id="clipPath8">
      <path
         d="M 81.250008,40.625004 H 525.00007 V 281.25003 H 81.250008 Z"
         transform="matrix(30.906615,0,0,-30.906615,-12724.949,4091.5226)"
         clip-rule="evenodd"
         id="path8" />
    </clipPath>
    <clipPath
       clipPathUnits="userSpaceOnUse"
       id="clipPath10">
      <path
         d="M 81.250008,40.625004 H 525.00007 V 281.25003 H 81.250008 Z"
         transform="matrix(41.296822,0,0,-41.296822,-7214.7555,8587.8231)"
         clip-rule="evenodd"
         id="path10" />
    </clipPath>
    <clipPath
       clipPathUnits="userSpaceOnUse"
       id="clipPath12">
      <path
         d="M 81.250008,40.625004 H 525.00007 V 281.25003 H 81.250008 Z"
         transform="matrix(61.959546,0,0,-61.959546,-12223.182,12805.423)"
         clip-rule="evenodd"
         id="path12" />
    </clipPath>
    <clipPath
       clipPathUnits="userSpaceOnUse"
       id="clipPath14">
      <path
         d="M 81.250008,40.625004 H 525.00007 V 281.25003 H 81.250008 Z"
         transform="matrix(61.959546,0,0,-61.959546,-18237.384,10847.311)"
         clip-rule="evenodd"
         id="path14" />
    </clipPath>
    <clipPath
       clipPathUnits="userSpaceOnUse"
       id="clipPath16">
      <path
         d="M 81.250008,40.625004 H 525.00007 V 281.25003 H 81.250008 Z"
         transform="matrix(0.44299498,0,0,0.44299498,205.10897,95.118966)"
         clip-rule="evenodd"
         id="path16" />
    </clipPath>
    <clipPath
       clipPathUnits="userSpaceOnUse"
       id="clipPath18">
      <path
         d="M 81.250008,40.625004 H 525.00007 V 281.25003 H 81.250008 Z"
         transform="matrix(0.44299498,0,0,0.44299498,205.10897,95.118966)"
         clip-rule="evenodd"
         id="path18" />
    </clipPath>
    <clipPath
       clipPathUnits="userSpaceOnUse"
       id="clipPath20">
      <path
         d="M 81.250008,40.625004 H 525.00007 V 281.25003 H 81.250008 Z"
         transform="matrix(41.20886,0,0,-41.20886,-9897.4253,7204.0534)"
         clip-rule="evenodd"
         id="path20" />
    </clipPath>
    <clipPath
       clipPathUnits="userSpaceOnUse"
       id="clipPath22">
      <path
         d="M 81.250008,40.625004 H 525.00007 V 281.25003 H 81.250008 Z"
         transform="matrix(41.20886,0,0,-41.20886,-10447.426,7204.0534)"
         clip-rule="evenodd"
         id="path22" />
    </clipPath>
    <clipPath
       clipPathUnits="userSpaceOnUse"
       id="clipPath24">
      <path
         d="M 81.250008,40.625004 H 525.00007 V 281.25003 H 81.250008 Z"
         transform="matrix(41.20886,0,0,-41.20886,-10836.427,7204.0534)"
         clip-rule="evenodd"
         id="path24" />
    </clipPath>
    <clipPath
       clipPathUnits="userSpaceOnUse"
       id="clipPath26">
      <path
         d="M 81.250008,40.625004 H 525.00007 V 281.25003 H 81.250008 Z"
         transform="matrix(41.20886,0,0,-41.20886,-11408.427,7204.0534)"
         clip-rule="evenodd"
         id="path26" />
    </clipPath>
    <clipPath
       clipPathUnits="userSpaceOnUse"
       id="clipPath28">
      <path
         d="M 81.250008,40.625004 H 525.00007 V 281.25003 H 81.250008 Z"
         transform="matrix(61.851164,0,0,-61.851164,-22393.868,9308.72)"
         clip-rule="evenodd"
         id="path28" />
    </clipPath>
    <clipPath
       clipPathUnits="userSpaceOnUse"
       id="clipPath30">
      <path
         d="M 81.250008,40.625004 H 525.00007 V 281.25003 H 81.250008 Z"
         transform="matrix(61.851164,0,0,-61.851164,-22894.068,9308.72)"
         clip-rule="evenodd"
         id="path30" />
    </clipPath>
    <clipPath
       clipPathUnits="userSpaceOnUse"
       id="clipPath32">
      <path
         d="M 81.250008,40.625004 H 525.00007 V 281.25003 H 81.250008 Z"
         transform="matrix(61.851164,0,0,-61.851164,-23394.268,9308.72)"
         clip-rule="evenodd"
         id="path32" />
    </clipPath>
    <clipPath
       clipPathUnits="userSpaceOnUse"
       id="clipPath34">
      <path
         d="M 81.250008,40.625004 H 525.00007 V 281.25003 H 81.250008 Z"
         transform="matrix(0.44299498,0,0,0.44299498,205.10897,95.118966)"
         clip-rule="evenodd"
         id="path34" />
    </clipPath>
    <clipPath
       clipPathUnits="userSpaceOnUse"
       id="clipPath36">
      <path
         d="M 81.250008,40.625004 H 525.00007 V 281.25003 H 81.250008 Z"
         transform="matrix(0.44299498,0,0,0.44299498,205.10897,95.118966)"
         clip-rule="evenodd"
         id="path36" />
    </clipPath>
  </defs>
  <g
     id="g1"
     transform="translate(-32.788472,-15.215705)">
    <path
       id="path1"
       d="m 435,166.84 c 3e-5,1.64271 -0.14764,3.28146 -0.44299,4.91626 -0.29535,1.63479 -0.73697,3.25775 -1.32483,4.86888 -0.5878,1.61114 -1.31903,3.2027 -2.1937,4.77466 -0.87466,1.57196 -1.88855,3.11677 -3.04162,4.63443 -1.15305,1.51767 -2.43976,3.00087 -3.86014,4.44961 -1.42038,1.44875 -2.96756,2.85603 -4.64154,4.22188 -1.67398,1.36586 -3.46674,2.68371 -5.37821,3.95355 -1.9115,1.26982 -3.93255,2.48552 -6.06317,3.64708 -2.13058,1.16158 -4.36047,2.26343 -6.68963,3.30554 -2.32917,1.04212 -4.7464,2.01949 -7.25174,2.93212 -2.50531,0.91264 -5.08661,1.75615 -7.74393,2.53053 -2.65732,0.77435 -5.37787,1.47584 -8.16165,2.10448 -2.78375,0.62864 -5.61731,1.18139 -8.50067,1.65823 -2.88337,0.47685 -5.80268,0.87552 -8.75791,1.196 -2.9552,0.32048 -5.9321,0.56123 -8.93066,0.72224 -2.9986,0.16101 -6.00446,0.24152 -9.01761,0.24152 -3.01309,0 -6.01895,-0.0805 -9.01758,-0.24152 -2.99859,-0.16101 -5.97552,-0.40176 -8.93075,-0.72224 -2.95523,-0.32048 -5.87452,-0.71915 -8.75788,-1.196 -2.88339,-0.47684 -5.71695,-1.02959 -8.5007,-1.65823 -2.78372,-0.62864 -5.50427,-1.33013 -8.16159,-2.1045 -2.65735,-0.77436 -5.23868,-1.61789 -7.74399,-2.53053 -2.50528,-0.91263 -4.92251,-1.89 -7.25171,-2.93211 -2.32916,-1.04213 -4.55905,-2.14398 -6.68963,-3.30556 -2.13059,-1.16156 -4.15161,-2.37726 -6.06314,-3.64708 -1.9115,-1.26982 -3.70426,-2.58768 -5.37827,-3.95354 -1.67398,-1.36584 -3.22116,-2.77313 -4.64154,-4.22186 -1.42038,-1.44874 -2.70709,-2.93194 -3.86017,-4.44961 -1.15304,-1.51766 -2.16691,-3.06247 -3.04158,-4.63443 -0.87466,-1.57198 -1.60591,-3.16353 -2.19375,-4.77468 -0.58782,-1.61113 -1.02939,-3.23408 -1.32473,-4.86886 C 251.14766,170.12146 251,168.48271 251,166.84 c 0,-1.6427 0.14766,-3.28145 0.44298,-4.91625 0.29533,-1.63479 0.73692,-3.25777 1.32474,-4.86891 0.58784,-1.61113 1.31909,-3.2027 2.19375,-4.77467 0.87467,-1.57198 1.88854,-3.11679 3.04158,-4.63445 1.15308,-1.51765 2.43979,-3.00085 3.86017,-4.44958 1.42038,-1.44875 2.96756,-2.85605 4.64154,-4.22191 1.67401,-1.36585 3.46677,-2.68369 5.37827,-3.95352 1.91153,-1.26983 3.93255,-2.48552 6.06314,-3.6471 2.13058,-1.16156 4.36047,-2.2634 6.68963,-3.30553 2.3292,-1.04212 4.74643,-2.0195 7.25171,-2.93213 2.50531,-0.91264 5.08664,-1.75614 7.74399,-2.5305 2.65732,-0.77436 5.37787,-1.47587 8.16159,-2.10451 2.78375,-0.62863 5.61731,-1.18137 8.5007,-1.65822 2.88336,-0.47685 5.80265,-0.87552 8.75788,-1.196 2.95523,-0.32047 5.93216,-0.56122 8.93075,-0.72223 2.99863,-0.16101 6.00449,-0.24151 9.01758,-0.24152 3.01315,1e-5 6.01901,0.0805 9.01761,0.24152 2.99856,0.16101 5.97546,0.40175 8.93066,0.72222 2.95523,0.32048 5.87454,0.71915 8.75791,1.19599 2.88336,0.47686 5.71692,1.0296 8.50067,1.65822 2.78378,0.62865 5.50433,1.33016 8.16165,2.10452 2.65732,0.77437 5.23865,1.61786 7.74396,2.5305 2.50531,0.91264 4.92254,1.89002 7.25174,2.93214 2.32913,1.04213 4.55902,2.14397 6.6896,3.30553 2.13062,1.16158 4.15167,2.37729 6.06314,3.64711 1.9115,1.26984 3.70426,2.58768 5.37824,3.95352 1.67398,1.36586 3.22116,2.77317 4.64154,4.2219 1.42038,1.44873 2.70709,2.93193 3.86014,4.44958 1.15307,1.51766 2.16696,3.06247 3.04162,4.63445 0.87467,1.57197 1.6059,3.16354 2.1937,4.77467 0.58786,1.61114 1.02948,3.23412 1.32483,4.86891 0.29535,1.6348 0.44302,3.27355 0.44299,4.91625 z"
       style="fill:none;stroke:#000000;stroke-width:1;stroke-linecap:butt;stroke-linejoin:miter;stroke-miterlimit:10;stroke-dasharray:none;stroke-opacity:1"
       transform="matrix(0.72235578,0,0,0.72235578,-148.16165,-68.709735)"
       clip-path="url(#clipPath2)" />
    <path
       id="path3"
       d="m 42,0 h -2 c -9.333334,0 -14,3.6666665 -14,11 0,2.666667 1,8 3,16 2.666666,9.333336 5,14.666668 7,16 2,1.333332 8.333332,2.333332 19,3 57.33334,2 102.33333,19.333328 135,52 6.66667,6.66666 45.33333,48.66666 116,126 70.66669,77.33334 105.66666,116.66666 105,118 -72.66669,185.33337 -110.66666,279.66669 -114,283 -6,7.33331 -27,11.33331 -63,12 h -28 c -4,4 -6,6.66669 -6,8 0,1.33331 0.66667,7.66669 2,19 2.66667,8.66669 6,15 10,19 h 14 c 22.66667,-1.33331 63,-2 121,-2 22,0 42.33334,0 61,0 18.66666,0 33.66666,0.33331 45,1 11.33334,0.66669 18,0.66669 20,0 11.33334,0 17,-3.66669 17,-11 0,-0.66669 -0.66666,-5 -2,-13 -2.66666,-10 -5,-16 -7,-18 -2,-2 -7.33334,-3 -16,-3 -20.66666,-2 -38.66666,-7.66669 -54,-17 l 77,-194 53,59 c 70,75.33331 105,117 105,125 0,12 -8,20.33331 -24,25 -3.33331,0 -7.66669,0.66669 -13,2 -10,0 -15,3.66669 -15,11 0,1.33331 0.66669,6.66669 2,16 2.66669,8.66669 6,15 10,19 h 12 c 0.66669,0 9,0 25,0 16,0 34,-0.66669 54,-2 20,-1.33331 33.66669,-1.66669 41,-1 60,0 93,1 99,3 h 8 c 4.66669,-4.66669 7,-8.33331 7,-11 -1.33331,-16.66669 -5.33331,-28.33331 -12,-35 h -16 c -22.66669,-0.66669 -43,-3.66669 -61,-9 -18,-5.33331 -31.66669,-11 -41,-17 -9.33331,-6 -17.33331,-12 -24,-18 l -11,-9 c 0,0.66669 -31.66669,-34 -95,-104 l -87,-96 c 0,-0.66666 10.33331,-27.33334 31,-80 20.66669,-52.66667 42.33331,-106.66666 65,-162 22.66669,-55.333336 35,-84 37,-86 6.66669,-6 27,-9.333332 61,-10 23.33331,0 35,-3 35,-9 0,-1.333332 -0.66669,-6 -2,-14 -2.66669,-10.666667 -5,-17 -7,-19 -2,-2 -6.66669,-3 -14,-3 -2,0 -13,0 -33,0 -20,0 -49.66669,0.3333332 -89,1 -40.66669,0 -71.66669,0 -93,0 -21.33334,0 -33,-0.3333333 -35,-1 -11.33334,0 -17,3 -17,9 0,0.666667 0.66666,5.666666 2,15 1.33334,6.666668 2.66666,11.333332 4,14 1.33334,2.666668 3,4.333332 5,5 2,0.666668 5,1.333332 9,2 4,0.666668 9.33334,1 16,1 6.66666,0 15.33334,2.333332 26,7 11.33331,5.333332 17,8.666668 17,10 -0.66669,0 -16.33334,39 -47,117 L 429,299 C 303.66666,163 239.33333,91.333336 236,84 c -2.66667,-5.333336 -4,-9.333336 -4,-12 0,-12.666668 9.66667,-21 29,-25 0.66666,0 2.66666,0 6,0 3.33334,0 5.33334,-0.333332 6,-1 2,0 3.33334,0 4,0 0.66666,0 1.66666,-0.333332 3,-1 1.33334,-0.666668 2.33334,-1.666668 3,-3 0.66666,-1.333332 1,-3.666668 1,-7 0,-6 -0.66666,-11.333332 -2,-16 C 280,10.333333 278,5.3333335 276,4 274,2.6666665 269,1.6666667 261,1 259,1 253,1 243,1 233,1 219,1.3333332 201,2 183,2.6666667 163.33333,2.6666667 142,2 90,2 56.666668,1.3333334 42,0 Z"
       style="fill:#000000;fill-opacity:1;fill-rule:nonzero;stroke:#000000;stroke-width:1;stroke-linecap:butt;stroke-linejoin:miter;stroke-miterlimit:10;stroke-dasharray:none;stroke-opacity:0.097"
       transform="matrix(0.01034486,0,0,-0.01034486,38.573539,26.844389)"
       clip-path="url(#clipPath4)" />
    <path
       id="path5"
       d="m 369.92999,127.29 -0.47,-0.11 -0.35998,-0.12 -0.36002,-0.13 -0.38998,-0.16 -0.41001,-0.19 -0.42999,-0.19 -0.44,-0.2 -0.48001,-0.2 -0.56,-0.28 -0.65,-0.31 -0.73999,-0.32 -0.85,-0.36 -0.94,-0.33 -1.01001,-0.34 -1.10999,-0.32 -1.19,-0.25 -1.20001,-0.22 -1.23999,-0.16 -1.20002,-0.11 -1.20999,-0.09 -1.14001,-0.03 -1.13999,-0.02 h -1.08999 l -1,0.03 -1.04001,0.09 -0.98001,0.18 -0.97,0.26 -1.00998,0.34 -0.94001,0.4 -0.92001,0.43 -0.92999,0.51 -0.92001,0.59 -0.97999,0.69 -1.07,0.85 -1.04001,0.95999 -1.00998,0.99001 -0.99002,1.1 -0.88999,1.12 -0.83999,1.22 -0.92001,1.38 -0.9,1.43999 -0.95001,1.47 -0.95999,1.41001 -0.93,1.38 -0.95001,1.37 -0.97,1.40001 -0.97,1.44999 -1.01999,1.44001 -1.03,1.38999 -1.17999,1.37999 -1.27002,1.37001 -1.35999,1.37 -1.48999,1.36 -1.5,1.28999 -1.53002,1.25 -1.60999,1.21001 -1.54001,1.11 -1.56,1.06999 -1.66,0.97 -1.66,0.91001 -1.72998,0.83 -1.79001,0.73 -1.79001,0.6 -1.79999,0.48999 -1.89001,0.39002 -1.84,0.28 -1.76999,0.19999 -1.76001,0.08 H 293.84 l -1.57999,-0.04 -1.53,-0.06 -1.51001,-0.01 -1.45999,-0.02 -1.39001,0.04 -1.32001,0.09 -1.28,0.14 -1.31,0.25 -1.28998,0.33001 -1.27002,0.36 -1.19,0.40998 -1.01999,0.43001 -0.92999,0.48 -0.83002,0.53 -0.72998,0.6 -0.69,0.62 -0.59,0.63 -0.56002,0.64 -0.48999,0.64 -0.46,0.70999 -0.45001,0.72001 -0.35998,0.77999 -0.32001,0.81002 -0.26999,0.78999 -0.20001,0.81 -0.16999,0.79001 -0.12002,0.80999 -0.04,0.83001 -0.03,0.83 -0.01,0.92 v 0.90998 0.90001 l 0.04,0.9 0.1,0.83 0.17001,0.86 0.25,0.89 0.32001,0.93001 0.35,0.94999 0.43998,0.89 0.53002,0.81 0.51999,0.75 0.62,0.77 0.6,0.85 0.65,0.91999 0.70999,0.91001 0.68002,0.86 0.66999,0.74 0.67001,0.69001 0.67999,0.65998 0.75,0.61001 0.87,0.63 0.92001,0.56 1,0.53 1.06998,0.53 1.04001,0.44 1.13,0.44999 1.26001,0.41001 1.28998,0.36 1.43002,0.38 1.40998,0.34 1.42001,0.3 1.32999,0.28 1.30001,0.19 1.22,0.15 1.19001,0.14 1.16998,0.09 1.14001,0.08 1.09,0.04 1.01999,0.01 0.95001,0.01 0.87,-0.04 0.88,-0.09 0.88001,-0.14 0.94,-0.21 0.89999,-0.23999 0.98999,-0.29001 1.08002,-0.31 1.09,-0.35 1.19,-0.40999 1.19,-0.44001 1.15998,-0.44 1.14001,-0.45 1.09,-0.41 1.05001,-0.39999 1.04999,-0.44001 1.06,-0.4 1.01001,-0.4 0.92999,-0.38 0.93,-0.36 0.80999,-0.37 0.77002,-0.42 0.69998,-0.43 0.70002,-0.48 0.72,-0.5 0.78998,-0.51 0.84002,-0.52 0.92999,-0.56 0.94999,-0.54001 1.02002,-0.51998 1.02999,-0.52001 1,-0.47999 1.01001,-0.51001 0.94999,-0.51 0.92999,-0.47 0.91,-0.47 0.86002,-0.42 0.83999,-0.39999 0.82999,-0.40001 0.79001,-0.34999 0.76999,-0.34001 0.70001,-0.29 0.65,-0.28 0.63,-0.26001 0.54999,-0.25999 0.58001,-0.26 0.56,-0.22 0.54001,-0.22 0.53998,-0.16 0.53,-0.15 0.52002,-0.14 0.51999,-0.13999 0.53,-0.13001 0.48999,-0.10001 0.46002,-0.08 0.42999,-0.05 0.35999,-0.02 0.33001,-0.02 0.31,-0.01 0.29999,-0.01 0.30002,-0.01 0.29998,-0.01 h 0.34 0.37 0.41 l 0.47,0.01 0.54001,0.02 0.63,0.02 0.73999,0.01 0.78,0.01 0.81,0.01 H 356.06 l 0.78,0.01 h 0.80001 l 0.81998,0.04 0.82001,0.05 0.82999,0.07 0.82,0.06 0.82001,0.02 0.81,0.02 h 0.79001 l 0.75,0.01 h 0.72 0.72998 0.79001 0.80001 0.81998 0.82001 l 0.76999,-0.04 0.75,-0.06 0.75,-0.09 0.70001,-0.11 0.73001,-0.13 0.69,-0.15999 0.72,-0.18001 0.72999,-0.22 0.70001,-0.25 0.67999,-0.25 0.59,-0.25 0.54,-0.29 0.47999,-0.30999 0.42001,-0.32 0.42999,-0.35001 0.45001,-0.33999 0.48999,-0.37 0.51001,-0.41 0.51999,-0.44 0.51001,-0.47 0.47,-0.46 0.47,-0.46 0.4,-0.48999 0.34,-0.49001 0.26,-0.54001 0.25,-0.59999 0.24,-0.58999 0.22,-0.62001 0.28,-0.68 0.27999,-0.69999 0.25,-0.73002 0.23001,-0.78999 0.22999,-0.86 0.18002,-0.88 0.16998,-0.9 0.15,-0.91 0.11001,-0.89 0.09,-0.94 0.08,-1 0.04,-1.01 0.01,-1.03 0.01,-1.03 v -1.03 -1 -0.98001 l -0.05,-0.97 -0.06,-0.93998 -0.07,-0.95002 -0.10999,-0.95999 -0.09,-0.94 -0.08,-0.95 -0.11999,-0.92 -0.09,-0.91999 -0.13001,-0.91001 -0.13998,-0.86 -0.10001,-0.86 -0.13,-0.77 -0.10999,-0.78 -0.12002,-0.73 -0.13999,-0.72999 -0.14001,-0.75 -0.14999,-0.69001 -0.10999,-0.68 -0.14001,-0.64 -0.09,-0.58 -0.13001,-0.54 -0.17999,-0.56 -0.20001,-0.52 -0.22,-0.57001 -0.22,-0.53999 -0.22,-0.52 -0.18,-0.49 -0.20999,-0.46 -0.22,-0.45 -0.19,-0.38 -0.20999,-0.33001 L 381.13,135.83 380.94,135.56 380.76001,135.3 380.47,134.86999 380.20001,134.5 379.87,134.14 l -0.35001,-0.31999 -0.22,-0.18001 -0.40998,-0.26 -0.43002,-0.27999 -0.31998,-0.19001 -0.40002,-0.24 -0.44,-0.33 -0.35999,-0.26 -0.33999,-0.27 -0.32001,-0.31 -0.20999,-0.19 -0.37,-0.39 -0.32001,-0.4 -0.27999,-0.27 -0.29001,-0.26 -0.32999,-0.3 -0.21002,-0.19 -0.31998,-0.19 -0.37002,-0.2 -0.38999,-0.12 -0.47,-0.04 h -0.57999 l -0.30001,-0.05 -0.54001,-0.18998 -0.22,-0.22001 -0.78998,-0.59 -0.07,-0.07 -0.03,-0.09 -0.02,-0.08 0.04,-0.09 0.06,-0.08 0.08,-0.05 0.1,-0.04 H 370.56 l 0.1,0.04 0.08,0.05 0.06,0.07 0.03,0.09 -0.01,0.09 -0.03,0.09 -0.07,0.07 -0.09,0.05 -0.11001,0.02 -0.1,-0.02 -0.1,-0.03 -0.08,-0.07 -0.04,-0.08 -0.03,-0.08 0.03,-0.1 0.04,-0.08 0.07,-0.06 0.11001,-0.04 0.1,-0.01 0.11001,0.02 0.09,0.05 0.73999,0.53 0.28,0.31 0.41,0.09 h 0.31 0.30002 l 0.31,0.01 0.32,0.04 0.47999,0.16 0.39001,0.21001 0.26999,0.12999 0.36999,0.33 0.24002,0.18001 0.26999,0.27999 0.31,0.29 0.32999,0.36999 0.30002,0.36 0.35,0.33001 0.22998,0.19 0.28,0.25999 0.31,0.26001 0.36001,0.30001 0.43,0.25999 0.38,0.22 0.29999,0.25 0.46002,0.28999 0.44,0.34002 0.4,0.37999 0.20999,0.22 0.26999,0.41 0.22,0.41 0.16,0.23999 0.15,0.26001 0.16,0.28 0.21002,0.32 0.20999,0.36 0.16001,0.38 0.22,0.47 0.20999,0.47 0.17001,0.48 0.21998,0.53 0.22,0.54001 0.22,0.55999 0.21002,0.54 0.17999,0.58 0.13001,0.55 0.10998,0.56999 0.12,0.66001 0.11001,0.66 0.15,0.7 0.14999,0.75 0.14002,0.72999 0.13,0.74001 0.09,0.77 0.13998,0.78 0.09,0.84999 0.14001,0.87001 0.13001,0.90999 0.1,0.92002 0.12,0.92999 0.08,0.95 0.09,0.93 0.12,0.97 0.07,0.96 0.05,0.93 0.05,0.98999 v 0.98001 1 1.03 l -0.01,1.04 -0.01,1.03 -0.04,1.02 -0.08,1 -0.09,0.95 -0.10999,0.90001 -0.16,0.90999 -0.16,0.9 -0.19001,0.89 -0.22998,0.87 -0.23001,0.8 -0.25,0.75 -0.29001,0.69 -0.26999,0.68 -0.23001,0.62001 -0.22998,0.59999 -0.26001,0.61 -0.28,0.57001 -0.36001,0.50999 -0.41,0.5 -0.46998,0.47 -0.48001,0.45999 -0.51999,0.49001 -0.53002,0.44 -0.50998,0.42999 -0.49002,0.36 -0.43998,0.34002 -0.44,0.36 -0.44,0.31999 -0.5,0.32001 -0.57001,0.29998 -0.6,0.26001 -0.69001,0.26 -0.69998,0.24 -0.76001,0.23 -0.73001,0.18001 -0.69998,0.15999 -0.73001,0.13 -0.70999,0.12 -0.76001,0.09 -0.76999,0.06 -0.79001,0.04 h -0.82001 -0.81998 -0.80001 -0.79001 -0.72998 -0.72 l -0.76001,-0.01 h -0.78 l -0.82001,-0.02 -0.84,-0.02 -0.82,-0.06 -0.81998,-0.06 -0.81,-0.05 -0.81,-0.03 h -0.80001 -0.78 -0.82001 l -0.81,0.01 -0.78,0.01 -0.73999,0.01 -0.63,0.03 -0.54001,0.01 -0.47,0.01 h -0.41 -0.37 l -0.34,-0.01 h -0.29998 -0.30002 l -0.29999,-0.01 -0.29999,-0.01 h -0.31 -0.35 l -0.4,0.02 -0.45001,0.07 -0.47,0.08 -0.51999,0.13 -0.54001,0.12999 -0.51999,0.13001 -0.52001,0.14 -0.51999,0.16 -0.53,0.2 -0.55002,0.22 -0.57999,0.25 -0.57,0.27 -0.62,0.26999 -0.64001,0.27001 -0.71998,0.29001 -0.75,0.33999 -0.79,0.34999 -0.82001,0.40001 -0.85001,0.4 -0.83999,0.41 -0.91999,0.47 -0.91,0.47 -0.96002,0.52001 -1.01999,0.5 -1,0.47999 -1.03,0.52001 -1.01001,0.51999 -0.94,0.52999 -0.92999,0.56002 -0.84,0.50999 -0.78,0.51 -0.72,0.51001 -0.70001,0.47999 -0.72,0.44 -0.78998,0.43 -0.83002,0.38 -0.91998,0.34 -0.94001,0.40001 -1,0.39999 -1.05999,0.4 -1.05002,0.43 -1.06998,0.4 -1.09002,0.41 -1.12998,0.46001 -1.16,0.43998 -1.20001,0.44001 -1.19999,0.41 -1.1,0.36 -1.07001,0.3 -0.98999,0.29 -0.93002,0.25 -0.94999,0.21 -0.89999,0.15 -0.91,0.09 -0.88001,0.04 -0.95001,-0.01 -1.03,-0.02 -1.1,-0.03 -1.15,-0.08 -1.19,-0.09 -1.16998,-0.14002 -1.25,-0.15999 -1.31,-0.19 -1.33002,-0.28 -1.42999,-0.3 -1.42001,-0.34 -1.41999,-0.38 -1.32,-0.37 -1.26999,-0.41999 -1.14002,-0.45002 -1.06,-0.44999 -1.07998,-0.53 -1.01001,-0.54 -0.94,-0.58 -0.88999,-0.63 -0.76001,-0.63001 -0.69,-0.67 -0.67001,-0.68998 -0.69999,-0.75 -0.67999,-0.87001 -0.71002,-0.92 -0.63999,-0.91 -0.6,-0.85 -0.62,-0.77 -0.53,-0.77 -0.54,-0.83001 -0.46,-0.90998 -0.35,-0.96001 -0.32001,-0.94 -0.25,-0.9 -0.16998,-0.88 -0.10001,-0.84 -0.05,-0.92 v -0.91 -0.89999 l 0.01,-0.93001 0.02,-0.84 0.05,-0.84 0.12,-0.83 0.17001,-0.8 0.20999,-0.83 0.26999,-0.8 0.33002,-0.82 0.36999,-0.80999 0.47,-0.71001 0.46,-0.73 0.51,-0.65001 0.56,-0.64999 0.60001,-0.64999 0.72,-0.63001 0.75,-0.61 0.84,-0.55 0.97,-0.48999 1.03,-0.44001 1.19,-0.41999 1.28998,-0.36 1.31002,-0.33001 1.34,-0.25 1.29999,-0.15001 1.32999,-0.09 1.40002,-0.04 1.45999,0.02 1.51999,0.02 1.53,0.05 1.59,0.04 h 1.58001 l 1.73001,-0.08 1.75998,-0.18998 1.83002,-0.28 1.86999,-0.38001 1.78,-0.47999 1.76999,-0.61 1.77002,-0.72001 1.72,-0.82 1.65,-0.9 1.63998,-0.97 1.55002,-1.06 1.54999,-1.1 1.58999,-1.20999 1.53,-1.25 1.5,-1.28002 1.47,-1.34999 1.36002,-1.36999 1.25998,-1.35001 1.17001,-1.36999 1.03,-1.39 1.01001,-1.43001 0.97,-1.45 0.95999,-1.40001 0.96,-1.36999 0.92001,-1.38001 0.95999,-1.39999 0.95001,-1.47 0.9,-1.44001 0.92999,-1.38999 0.86001,-1.23 0.9,-1.14 0.98999,-1.10001 1.01999,-1.00999 1.06,-0.97 1.07,-0.85 1.01001,-0.7 0.91999,-0.61 0.97,-0.52 0.92001,-0.43 0.95999,-0.41 1.03,-0.34 1,-0.27 1.01001,-0.19 1.04999,-0.09 1.02002,-0.03 h 1.08999 l 1.15,0.02 1.16,0.03 1.20999,0.09 1.22,0.11 1.25,0.16 1.21,0.22 1.23001,0.26 1.11999,0.32 1.01001,0.33 0.97,0.34 0.82999,0.34 0.77002,0.32 0.67999,0.29 0.54999,0.25 0.5,0.19 0.44,0.19 0.44,0.18 0.41001,0.18 0.35,0.17 0.35999,0.12 0.29001,0.13 0.47,0.11 0.05,0.02 0.05,0.02 0.03,0.04 0.03,0.04 0.01,0.04 -0.01,0.04 -0.02,0.04 -0.02,0.04 -0.03,0.03 -0.04,0.03 -0.06,0.01 h -0.04 -0.05"
       style="fill:#000000;fill-opacity:1;fill-rule:nonzero;stroke:#000000;stroke-width:1;stroke-linecap:butt;stroke-linejoin:miter;stroke-miterlimit:10;stroke-dasharray:none;stroke-opacity:1"
       transform="matrix(0.72235578,0,0,0.72235578,-148.16165,-68.709735)"
       clip-path="url(#clipPath6)" />
    <path
       id="path7"
       d="m 208,74 c 0,-16 15.33333,-25.333332 46,-28 12,0 18,-3.666668 18,-11 0,-0.666668 -0.66666,-5 -2,-13 -2,-9.333334 -4,-15.333333 -6,-18 -2,-2.6666668 -6.33334,-4 -13,-4 -1.33333,0 -5.33333,0 -12,0 -6.66667,0 -18,0.33333331 -34,1 C 189,1.6666667 167.66667,2 141,2 93.666664,2 63.333336,1.3333334 50,0 h -8 c -4.666668,4.666667 -7,8.333333 -7,11 1.333332,18 5.666668,29.666668 13,35 h 14 c 46.66667,2 80.66667,18.666664 102,50 4,4 64.33333,105.66666 181,305 116.66669,199.33337 176,300.33331 178,303 4.66669,8 12.66669,12 24,12 h 8 17 c 4,-6 6,-9.33331 6,-10 l 28,-323 c 18.66669,-215.33334 28.66669,-324 30,-326 3.33331,-7.333332 25,-11 65,-11 16.66669,0 25,-3.333332 25,-10 0,-1.333332 -1,-6 -3,-14 C 721,12 719.33331,6 718,4 716.66669,2 712,0.66666669 704,0 702,0 697.33331,0 690,0 682.66669,0 669.66669,0.33333331 651,1 632.33331,1.6666667 608,2 578,2 515.33331,2 474.33334,1.3333334 455,0 h -12 c -4,4 -6,7 -6,9 0,2 0.66666,8 2,18 2.66666,8.666668 4.66666,14 6,16 l 4,3 h 20 c 36,2 57.33331,7.666664 64,17 L 521,213 H 283 L 249,155 C 221.66667,109 208,82 208,74 Z m 308,186 c 0,7.33334 -4,59.33331 -12,156 -8,96.66669 -12.66666,145.33331 -14,146 L 463,519 C 452.33334,501 431.33334,465.33334 400,412 l -90,-152 103,-1 c 68.66669,0 103,0.33334 103,1 z"
       style="fill:#000000;fill-opacity:1;fill-rule:nonzero;stroke:#000000;stroke-width:1;stroke-linecap:butt;stroke-linejoin:miter;stroke-miterlimit:10;stroke-dasharray:none;stroke-opacity:0.0971"
       transform="matrix(0.01035377,0,0,-0.01035377,131.7512,42.362684)"
       clip-path="url(#clipPath8)" />
    <path
       id="path9"
       d="m 52,289 c 4.666668,28 22.666664,60.33334 54,97 31.33333,36.66666 70,55.33334 116,56 23.33333,0 44.66666,-6 64,-18 19.33334,-12 33.66666,-27 43,-45 28,42 61.66666,63 101,63 24.66666,0 46,-7.33334 64,-22 18,-14.66666 27.33331,-34.33334 28,-59 0,-19.33334 -4.66669,-35 -14,-47 -9.33334,-12 -18.33334,-19.33334 -27,-22 -8.66666,-2.66666 -16.33334,-4 -23,-4 -12.66666,0 -23,3.66666 -31,11 -8,7.33334 -12,17 -12,29 0,30.66666 16.66666,51.66666 50,63 -7.33334,8.66666 -20.66666,13 -40,13 -8.66666,0 -15,-0.66666 -19,-2 -25.33334,-10.66666 -44,-32.66666 -56,-66 -40,-147.33334 -60,-233.33333 -60,-258 0,-18.666668 5.33334,-32 16,-40 10.66666,-8 22.33334,-12 35,-12 24.66666,0 49,11 73,33 24,22 40.33334,49 49,81 2,6.66667 4,10.33333 6,11 2,0.66667 7.33334,1.33333 16,2 h 4 c 10,0 15,-2.66667 15,-8 0,-0.66667 -0.66666,-4.33333 -2,-11 C 491.33334,96 470.66666,62.333336 440,33 409.33334,3.666666 373.66666,-11 333,-11 286.33334,-11 251,10 227,52 199.66667,10.666664 168.33334,-10 133,-10 h -6 C 94.333328,-10 71,-1.333334 57,16 43,33.333336 35.666668,51.666664 35,71 c 0,21.333336 6.333332,38.66666 19,52 12.666664,13.33333 27.666664,20 45,20 28.66667,0 43,-14 43,-42 C 142,87.666664 138,76 130,66 122,56 114.33334,49.333332 107,46 99.666664,42.666668 95.333336,41 94,41 l -3,-1 c 0,-0.666668 2,-2 6,-4 4,-2 9.33334,-4.333334 16,-7 6.66666,-2.666666 13,-3.666666 19,-3 24,0 44.66667,15 62,45 6,10.666664 13.66667,33.33333 23,68 9.33333,34.66667 18.66667,70.66666 28,108 9.33333,37.33334 14.66666,59.33334 16,66 3.33334,18 5,31 5,39 0,18.66666 -5,32 -15,40 -10,8 -21.33333,12 -34,12 -26.66667,0 -51.66667,-10.66666 -75,-32 -23.33334,-21.33334 -39.66666,-48.66666 -49,-82 -1.333336,-6 -3,-9.33334 -5,-10 -2,-0.66666 -7.333336,-1.33334 -16,-2 H 58 c -4,4 -6,7.66666 -6,11 z"
       style="fill:#000000;fill-opacity:1;fill-rule:nonzero;stroke:#000000;stroke-width:1;stroke-linecap:butt;stroke-linejoin:miter;stroke-miterlimit:10;stroke-dasharray:none;stroke-opacity:0.0726"
       transform="matrix(0.00774878,0,0,-0.00774878,55.905553,66.545152)"
       clip-path="url(#clipPath10)" />
    <path
       id="path11"
       d="m 55,251 c 0,51.33334 19,96.33334 57,135 38,38.66666 83.66666,58 137,58 53.33334,0 99,-18.66666 137,-56 38,-37.33334 57.33334,-83.66666 58,-139 0,-52 -18.66666,-97.33333 -56,-136 C 350.66666,74.333328 304.66666,55 250,55 196.66666,55 151,74 113,112 75,150 55.666668,196.33333 55,251 Z"
       style="fill:#000000;fill-opacity:1;fill-rule:nonzero;stroke:#000000;stroke-width:1;stroke-linecap:butt;stroke-linejoin:miter;stroke-miterlimit:10;stroke-dasharray:none;stroke-opacity:0.0484"
       transform="matrix(0.00516466,0,0,-0.00516466,63.12858,66.135655)"
       clip-path="url(#clipPath12)" />
    <path
       id="path13"
       d="m 55,251 c 0,51.33334 19,96.33334 57,135 38,38.66666 83.66666,58 137,58 53.33334,0 99,-18.66666 137,-56 38,-37.33334 57.33334,-83.66666 58,-139 0,-52 -18.66666,-97.33333 -56,-136 C 350.66666,74.333328 304.66666,55 250,55 196.66666,55 151,74 113,112 75,150 55.666668,196.33333 55,251 Z"
       style="fill:#000000;fill-opacity:1;fill-rule:nonzero;stroke:#000000;stroke-width:1;stroke-linecap:butt;stroke-linejoin:miter;stroke-miterlimit:10;stroke-dasharray:none;stroke-opacity:0.0484"
       transform="matrix(0.00516466,0,0,-0.00516466,94.189887,56.022673)"
       clip-path="url(#clipPath14)" />
    <path
       id="path15"
       d="m 297.4129,188.058 c 0.59253,0.86757 1.18497,1.71071 1.77732,2.52945 l -0.81018,0.58621 c -0.59772,-0.82614 -1.19538,-1.6767 -1.79294,-2.55167 z m 3.54917,4.90521 c 0.61435,0.79836 1.22751,1.56865 1.83941,2.31088 l -0.7716,0.63608 c -0.61917,-0.75105 -1.23926,-1.53007 -1.86029,-2.33707 z m 3.81234,4.61208 c 0.65653,0.73492 1.31165,1.43757 1.96537,2.10795 l -0.71595,0.69818 c -0.66363,-0.68052 -1.3287,-1.39386 -1.9952,-2.13996 z m 4.16105,4.24319 c 0.7319,0.67284 1.46261,1.30545 2.19207,1.89784 l -0.63043,0.77628 c -0.74515,-0.60512 -1.49127,-1.25108 -2.2384,-1.93791 z m 4.60604,3.71439 c 0.81376,0.56366 1.62558,1.07649 2.43546,1.53848 l -0.49555,0.86859 c -0.83502,-0.47638 -1.67144,-1.00471 -2.5093,-1.58502 z m 5.11975,2.88704 c 0.91285,0.39613 1.8234,0.72715 2.73169,0.99308 l -0.281,0.95972 c -0.94815,-0.27763 -1.89774,-0.62277 -2.84876,-1.03544 z m 5.5907,1.61628 c 0.97129,0.13866 1.9401,0.20212 2.90644,0.19042 l 0.0121,0.99994 c -1.0177,0.0123 -2.03766,-0.0545 -3.05987,-0.2004 l 0.14135,-0.98996 z m 5.80625,-0.0713 c 0.94754,-0.15991 1.89334,-0.39274 2.83743,-0.69848 l 0.30811,0.95135 c -0.99039,0.32076 -1.98346,0.56516 -2.97916,0.73319 z m 5.76526,-1.86811 c 0.93866,-0.44692 1.80447,-0.93729 2.59744,-1.47115 l 0.55847,0.82953 c -0.83408,0.56152 -1.74274,1.07635 -2.72604,1.54451 z m 4.74951,-3.19544 c 0.70855,-0.67876 1.33029,-1.41 1.86523,-2.19374 l 0.82599,0.56369 c -0.57407,0.84117 -1.24057,1.62523 -1.99951,2.35219 z m 3.22784,-4.74774 c 0.34952,-0.86813 0.61719,-1.78725 0.80307,-2.75736 l 0.98212,0.18818 c -0.19809,1.03373 -0.48392,2.01461 -0.85751,2.94262 z m 1.10669,-5.51823 c 0.0343,-0.96584 9.2e-4,-1.97394 -0.10007,-3.02431 l 0.99543,-0.0957 c 0.10519,1.09402 0.13986,2.14584 0.10403,3.15544 l -0.99939,-0.0354 z m -0.54407,-5.99817 c -0.17257,-0.86792 -0.38528,-1.76064 -0.63812,-2.67813 l 0.96411,-0.2656 c 0.25913,0.94049 0.47739,1.85671 0.65479,2.74863 z m -1.51831,-5.50977 c -0.33392,-0.96959 -0.70828,-1.96435 -1.12304,-2.9843 l 0.92633,-0.37674 c 0.42157,1.03664 0.8023,2.04843 1.14221,3.03542 z"
       style="fill:#000000;fill-opacity:1;fill-rule:nonzero;stroke:none"
       transform="matrix(0.72235578,0,0,0.72235578,-148.16165,-68.709735)"
       clip-path="url(#clipPath16)" />
    <path
       id="path17"
       d="m 340.44,175.88 3.41999,2.87999 -2.22999,-0.12999 -1.44,1.71 z"
       style="fill:#000000;fill-opacity:1;fill-rule:nonzero;stroke:#000000;stroke-width:1;stroke-linecap:butt;stroke-linejoin:miter;stroke-miterlimit:10;stroke-dasharray:none;stroke-opacity:1"
       transform="matrix(0.72235578,0,0,0.72235578,-148.16165,-68.709735)"
       clip-path="url(#clipPath18)" />
    <path
       id="path19"
       d="m 118,-162 c 1.33334,0 3.33334,-0.66667 6,-2 2.66666,-1.33333 6.33333,-2.33333 11,-3 4.66667,-0.66667 8.66667,-1 12,-1 8.66667,0 16.66667,4.33333 24,13 7.33333,8.66667 12.66667,18.33333 16,29 6.66667,18 18,69 34,153 16,84 31.33333,164 46,240 14.66666,76 22,114.33334 22,115 v 3 h -47 c -31.33333,0 -48,0.66666 -50,2 -2.66667,2 -4,5.33334 -4,10 l 7,28 c 1.33333,3.33334 4,5 8,5 4,0 19.66667,0.33334 47,1 32,0 48,0.33334 48,1 0,1.33334 3,18 9,50 6,32 10,51.33331 12,58 24.66666,110 73.33331,165 146,165 24.66666,-1.33331 45,-8.66669 61,-22 16,-13.33331 24,-31 24,-53 0,-24 -7,-41.33331 -21,-52 -14,-10.66669 -28,-16.33331 -42,-17 -29.33334,0 -44,14 -44,42 0,12.66669 3.66666,23.66669 11,33 7.33334,9.33331 15.33334,16.33331 24,21 l 9,5 c -10.66666,4 -20.66666,6 -30,6 -8,0 -15.66666,-3.33331 -23,-10 -7.33334,-6.66669 -12.33334,-16 -15,-28 -4.66666,-19.33331 -10,-45.33331 -16,-78 -6,-32.66669 -11.33334,-60.33334 -16,-83 -4.66666,-22.66666 -7,-34.66666 -7,-36 0,-1.33334 18.33334,-2 55,-2 30,0 47.33334,-0.33334 52,-1 4.66666,-0.66666 8.33334,-2.66666 11,-6 0.66666,-2.66666 0,-8.33334 -2,-17 -2,-8.66666 -3.66666,-14 -5,-16 -1.33334,-3.33334 -4.33334,-5 -9,-5 -4.66666,0 -22.66666,-0.33334 -54,-1 H 372 L 349,263 C 317,97.666656 294.66666,-5.6666641 282,-47 c -18,-56.66667 -41.33333,-98.66667 -70,-126 -24.66667,-21.33333 -49,-32 -73,-32 -21.33334,0 -40.666664,6.33333 -58,19 -17.333336,12.66667 -26,30.66667 -26,54 0,24.66667 7,42.666664 21,54 14,11.333336 28,17 42,17 29.33333,0 44,-14 44,-42 0,-12.66666 -3.66667,-23.66666 -11,-33 -7.33333,-9.33333 -15.33333,-16.33333 -24,-21 z"
       style="fill:#000000;fill-opacity:1;fill-rule:nonzero;stroke:#000000;stroke-width:1;stroke-linecap:butt;stroke-linejoin:miter;stroke-miterlimit:10;stroke-dasharray:none;stroke-opacity:0.0728"
       transform="matrix(0.00776532,0,0,-0.00776532,76.856675,55.94178)"
       clip-path="url(#clipPath20)" />
    <path
       id="path21"
       d="m 94,250 c 0,46 3.333336,89.66666 10,131 6.66666,41.33334 14.33334,77 23,107 8.66667,30 21,59.33331 37,88 16,28.66669 28.66667,51 38,67 9.33333,16 23.33333,33.33331 42,52 18.66666,18.66669 29.66666,30 33,34 3.33334,4 11.66666,11 25,21 h 13 4 c 9.33334,0 14,-3 14,-9 0,-2 -5.66666,-9 -17,-21 -11.33334,-12 -25,-29.66669 -41,-53 -16,-23.33331 -32.33333,-52 -49,-86 -16.66667,-34 -30.66667,-80 -42,-138 -11.33333,-58 -17,-122.33331 -17,-193 0,-70.66667 5.66667,-134.66666 17,-192 11.33333,-57.33333588 25,-103.666664 41,-139 16,-35.33334 32.33334,-64 49,-86 16.66666,-22 30.66666,-39.66667 42,-53 11.33334,-13.33333 17,-20.33333 17,-21 0,-6 -5,-9 -15,-9 h -3 -13 l -28,24 C 211.33333,-169.33333 165.66667,-98.666672 137,-14 108.33333,70.666672 94,158.66666 94,250 Z"
       style="fill:#000000;fill-opacity:1;fill-rule:nonzero;stroke:#000000;stroke-width:1;stroke-linecap:butt;stroke-linejoin:miter;stroke-miterlimit:10;stroke-dasharray:none;stroke-opacity:0.0728"
       transform="matrix(0.00776532,0,0,-0.00776532,81.127603,55.94178)"
       clip-path="url(#clipPath22)" />
    <path
       id="path23"
       d="m 52,289 c 4.666668,28 22.666664,60.33334 54,97 31.33333,36.66666 70,55.33334 116,56 23.33333,0 44.66666,-6 64,-18 19.33334,-12 33.66666,-27 43,-45 28,42 61.66666,63 101,63 24.66666,0 46,-7.33334 64,-22 18,-14.66666 27.33331,-34.33334 28,-59 0,-19.33334 -4.66669,-35 -14,-47 -9.33334,-12 -18.33334,-19.33334 -27,-22 -8.66666,-2.66666 -16.33334,-4 -23,-4 -12.66666,0 -23,3.66666 -31,11 -8,7.33334 -12,17 -12,29 0,30.66666 16.66666,51.66666 50,63 -7.33334,8.66666 -20.66666,13 -40,13 -8.66666,0 -15,-0.66666 -19,-2 -25.33334,-10.66666 -44,-32.66666 -56,-66 -40,-147.33334 -60,-233.33333 -60,-258 0,-18.666668 5.33334,-32 16,-40 10.66666,-8 22.33334,-12 35,-12 24.66666,0 49,11 73,33 24,22 40.33334,49 49,81 2,6.66667 4,10.33333 6,11 2,0.66667 7.33334,1.33333 16,2 h 4 c 10,0 15,-2.66667 15,-8 0,-0.66667 -0.66666,-4.33333 -2,-11 C 491.33334,96 470.66666,62.333336 440,33 409.33334,3.666666 373.66666,-11 333,-11 286.33334,-11 251,10 227,52 199.66667,10.666664 168.33334,-10 133,-10 h -6 C 94.333328,-10 71,-1.333334 57,16 43,33.333336 35.666668,51.666664 35,71 c 0,21.333336 6.333332,38.66666 19,52 12.666664,13.33333 27.666664,20 45,20 28.66667,0 43,-14 43,-42 C 142,87.666664 138,76 130,66 122,56 114.33334,49.333332 107,46 99.666664,42.666668 95.333336,41 94,41 l -3,-1 c 0,-0.666668 2,-2 6,-4 4,-2 9.33334,-4.333334 16,-7 6.66666,-2.666666 13,-3.666666 19,-3 24,0 44.66667,15 62,45 6,10.666664 13.66667,33.33333 23,68 9.33333,34.66667 18.66667,70.66666 28,108 9.33333,37.33334 14.66666,59.33334 16,66 3.33334,18 5,31 5,39 0,18.66666 -5,32 -15,40 -10,8 -21.33333,12 -34,12 -26.66667,0 -51.66667,-10.66666 -75,-32 -23.33334,-21.33334 -39.66666,-48.66666 -49,-82 -1.333336,-6 -3,-9.33334 -5,-10 -2,-0.66666 -7.333336,-1.33334 -16,-2 H 58 c -4,4 -6,7.66666 -6,11 z"
       style="fill:#000000;fill-opacity:1;fill-rule:nonzero;stroke:#000000;stroke-width:1;stroke-linecap:butt;stroke-linejoin:miter;stroke-miterlimit:10;stroke-dasharray:none;stroke-opacity:0.0728"
       transform="matrix(0.00776532,0,0,-0.00776532,84.148326,55.94178)"
       clip-path="url(#clipPath24)" />
    <path
       id="path25"
       d="m 60,749 4,1 c 3.333336,0 6.666664,0 10,0 h 12 l 28,-24 c 62.66667,-56.66669 108.33333,-127.33331 137,-212 28.66666,-84.66669 43,-172.66666 43,-264 0,-45.33334 -3.33334,-89 -10,-131 -6.66666,-42 -14.33334,-77.666664 -23,-107 -8.66667,-29.333334 -21,-58.666664 -37,-88 -16,-29.33334 -28.66667,-51.66666 -38,-67 -9.33333,-15.33333 -23,-32.33333 -41,-51 -18,-18.66667 -28.66666,-29.66667 -32,-33 -3.33334,-3.33333 -11,-9.66667 -23,-19 -2,-2 -3.333336,-3.33333 -4,-4 H 74 c -5.333336,0 -9,0 -11,0 -2,0 -3.666668,1 -5,3 -1.333332,2 -2.333332,5 -3,9 0.666668,0.66667 4.333332,5 11,13 103.33334,107.33334 155,265.666656 155,475 0,209.33334 -51.66666,367.66669 -155,475 -6.666668,8 -10.333332,12.33331 -11,13 0,5.33331 1.666668,9 5,11 z"
       style="fill:#000000;fill-opacity:1;fill-rule:nonzero;stroke:#000000;stroke-width:1;stroke-linecap:butt;stroke-linejoin:miter;stroke-miterlimit:10;stroke-dasharray:none;stroke-opacity:0.0728"
       transform="matrix(0.00776532,0,0,-0.00776532,88.590083,55.94178)"
       clip-path="url(#clipPath26)" />
    <path
       id="path27"
       d="m 78,250 c 0,16 5.666664,30 17,42 11.33334,12 25.66666,18 43,18 16,0 30,-5.33334 42,-16 12,-10.66666 18.33333,-25 19,-43 0,-16.66667 -5.66667,-31 -17,-43 -11.33333,-12 -25.66667,-18 -43,-18 -17.33334,0 -31.66666,5.66667 -43,17 -11.333336,11.33333 -17.333336,25.66667 -18,43 z"
       style="fill:#000000;fill-opacity:1;fill-rule:nonzero;stroke:#000000;stroke-width:1;stroke-linecap:butt;stroke-linejoin:miter;stroke-miterlimit:10;stroke-dasharray:none;stroke-opacity:0.0485"
       transform="matrix(0.00517371,0,0,-0.00517371,115.85938,48.160618)"
       clip-path="url(#clipPath28)" />
    <path
       id="path29"
       d="m 78,250 c 0,16 5.666664,30 17,42 11.33334,12 25.66666,18 43,18 16,0 30,-5.33334 42,-16 12,-10.66666 18.33333,-25 19,-43 0,-16.66667 -5.66667,-31 -17,-43 -11.33333,-12 -25.66667,-18 -43,-18 -17.33334,0 -31.66666,5.66667 -43,17 -11.333336,11.33333 -17.333336,25.66667 -18,43 z"
       style="fill:#000000;fill-opacity:1;fill-rule:nonzero;stroke:#000000;stroke-width:1;stroke-linecap:butt;stroke-linejoin:miter;stroke-miterlimit:10;stroke-dasharray:none;stroke-opacity:0.0485"
       transform="matrix(0.00517371,0,0,-0.00517371,118.44727,48.160618)"
       clip-path="url(#clipPath30)" />
    <path
       id="path31"
       d="m 78,250 c 0,16 5.666664,30 17,42 11.33334,12 25.66666,18 43,18 16,0 30,-5.33334 42,-16 12,-10.66666 18.33333,-25 19,-43 0,-16.66667 -5.66667,-31 -17,-43 -11.33333,-12 -25.66667,-18 -43,-18 -17.33334,0 -31.66666,5.66667 -43,17 -11.333336,11.33333 -17.333336,25.66667 -18,43 z"
       style="fill:#000000;fill-opacity:1;fill-rule:nonzero;stroke:#000000;stroke-width:1;stroke-linecap:butt;stroke-linejoin:miter;stroke-miterlimit:10;stroke-dasharray:none;stroke-opacity:0.0485"
       transform="matrix(0.00517371,0,0,-0.00517371,121.03516,48.160618)"
       clip-path="url(#clipPath32)" />
    <path
       id="path33"
       d="m 335.64941,169.3065 c -0.75637,-0.74379 -1.46026,-1.51257 -2.11163,-2.30638 l 0.77307,-0.63434 c 0.62876,0.76625 1.30866,1.50882 2.03974,2.22771 z m -3.90939,-4.7648 c -0.54983,-0.84956 -1.04623,-1.72418 -1.4892,-2.62387 l 0.89716,-0.44171 c 0.42575,0.86476 0.90292,1.70549 1.43152,2.52222 z m -2.66977,-5.43236 c -0.33859,-0.96125 -0.62244,-1.9481 -0.85159,-2.96051 l 0.97534,-0.22073 c 0.22064,0.97481 0.49377,1.92448 0.81943,2.84903 z m -1.3013,-6.1211 c -0.0336,-1.08886 0.0789,-2.11532 0.33765,-3.07935 l 0.96582,0.25919 c -0.23322,0.86903 -0.33454,1.79881 -0.30396,2.78936 z m 1.64368,-5.91674 c 0.57028,-0.83388 1.28735,-1.60019 2.15115,-2.29893 l 0.62891,0.77749 c -0.78797,0.63738 -1.43952,1.33271 -1.95468,2.08599 z m 4.7438,-3.97134 c 0.20481,-0.10622 0.41465,-0.21022 0.62949,-0.31201 0.67416,-0.3194 1.42288,-0.53897 2.24622,-0.65871 l 0.14392,0.98959 c -0.72425,0.10533 -1.37824,0.29628 -1.96198,0.57283 -0.2041,0.0967 -0.4032,0.19538 -0.59726,0.29602 z m 6.17133,-0.96912 c 0.86532,0.10404 1.7872,0.28243 2.76565,0.53519 l -0.25012,0.96823 c -0.93545,-0.24167 -1.81375,-0.41185 -2.63492,-0.51056 z m 5.8547,1.51033 c 0.86664,0.3181 1.76975,0.68326 2.70936,1.09551 l -0.4018,0.91574 c -0.92081,-0.40401 -1.80484,-0.76151 -2.65216,-1.0725 z m 5.34775,2.32933 c 0.90811,0.44918 1.84622,0.93688 2.81433,1.46309 l -0.4776,0.8786 c -0.95724,-0.52034 -1.88394,-1.00212 -2.78009,-1.44535 z m 5.50373,2.97905 c 0.78634,0.45822 1.59149,0.93991 2.41549,1.44509 l -0.5227,0.85253 c -0.81803,-0.50151 -1.61676,-0.97937 -2.39627,-1.4336 z m 4.93676,3.02672 c 0.85746,0.54956 1.73319,1.1223 2.6272,1.7182 l -0.55463,0.83209 c -0.88876,-0.59239 -1.75949,-1.16185 -2.61218,-1.70837 z"
       style="fill:#000000;fill-opacity:1;fill-rule:nonzero;stroke:none"
       transform="matrix(0.72235578,0,0,0.72235578,-148.16165,-68.709735)"
       clip-path="url(#clipPath34)" />
    <path
       id="path35"
       d="m 369.07999,157.36 -4.43,-0.62 1.96,-1.08 0.30001,-2.21 z"
       style="fill:#000000;fill-opacity:1;fill-rule:nonzero;stroke:#000000;stroke-width:1;stroke-linecap:butt;stroke-linejoin:miter;stroke-miterlimit:10;stroke-dasharray:none;stroke-opacity:1"
       transform="matrix(0.72235578,0,0,0.72235578,-148.16165,-68.709735)"
       clip-path="url(#clipPath36)" />
  </g>
</svg>
