<?xml version="1.0" encoding="UTF-8" standalone="no"?>
<!-- Created with Inkscape (http://www.inkscape.org/) -->

<svg
   version="1.1"
   id="svg1"
   width="336"
   height="118.66667"
   viewBox="0 0 336 118.66667"
   xmlns="http://www.w3.org/2000/svg"
   xmlns:svg="http://www.w3.org/2000/svg">
  <defs
     id="defs1">
    <clipPath
       clipPathUnits="userSpaceOnUse"
       id="clipPath1">
      <path
         d="M 0,0 H 1059 V 447 H 0 Z"
         transform="matrix(0.32051511,0,0,0.32051511,231.48578,127.75415)"
         clip-rule="evenodd"
         id="path1" />
    </clipPath>
    <clipPath
       clipPathUnits="userSpaceOnUse"
       id="clipPath2">
      <path
         d="M 0,0 H 1059 V 447 H 0 Z"
         transform="matrix(0.32051511,0,0,0.32051511,231.48578,127.75415)"
         clip-rule="evenodd"
         id="path2" />
    </clipPath>
    <clipPath
       clipPathUnits="userSpaceOnUse"
       id="clipPath3">
      <path
         d="M 0,0 H 1059 V 447 H 0 Z"
         transform="matrix(0.32051511,0,0,0.32051511,231.48578,127.75415)"
         clip-rule="evenodd"
         id="path3" />
    </clipPath>
    <clipPath
       clipPathUnits="userSpaceOnUse"
       id="clipPath4">
      <path
         d="M 0,0 H 1059 V 447 H 0 Z"
         transform="matrix(0.32051511,0,0,0.32051511,231.48578,127.75415)"
         clip-rule="evenodd"
         id="path4" />
    </clipPath>
    <clipPath
       clipPathUnits="userSpaceOnUse"
       id="clipPath5">
      <path
         d="M 0,0 H 1059 V 447 H 0 Z"
         transform="matrix(0.32051511,0,0,0.32051511,231.48578,127.75415)"
         clip-rule="evenodd"
         id="path5" />
    </clipPath>
    <clipPath
       clipPathUnits="userSpaceOnUse"
       id="clipPath6">
      <path
         d="M 0,0 H 1059 V 447 H 0 Z"
         transform="matrix(0.32051511,0,0,0.32051511,231.48578,127.75415)"
         clip-rule="evenodd"
         id="path6" />
    </clipPath>
    <clipPath
       clipPathUnits="userSpaceOnUse"
       id="clipPath7">
      <path
         d="M 0,0 H 1059 V 447 H 0 Z"
         transform="matrix(0.32051511,0,0,0.32051511,231.48578,127.75415)"
         clip-rule="evenodd"
         id="path7" />
    </clipPath>
    <clipPath
       clipPathUnits="userSpaceOnUse"
       id="clipPath8">
      <path
         d="M 0,0 H 1059 V 447 H 0 Z"
         transform="matrix(0.32051511,0,0,0.32051511,231.48578,127.75415)"
         clip-rule="evenodd"
         id="path8" />
    </clipPath>
    <clipPath
       clipPathUnits="userSpaceOnUse"
       id="clipPath9">
      <path
         d="M 0,0 H 1059 V 447 H 0 Z"
         transform="matrix(0.32051511,0,0,0.32051511,231.48578,127.75415)"
         clip-rule="evenodd"
         id="path9" />
    </clipPath>
    <clipPath
       clipPathUnits="userSpaceOnUse"
       id="clipPath10">
      <path
         d="M 0,0 H 1059 V 447 H 0 Z"
         transform="matrix(0.32051511,0,0,0.32051511,231.48578,127.75415)"
         clip-rule="evenodd"
         id="path10" />
    </clipPath>
    <clipPath
       clipPathUnits="userSpaceOnUse"
       id="clipPath11">
      <path
         d="M 0,0 H 1059 V 447 H 0 Z"
         transform="matrix(0.32051511,0,0,0.32051511,231.48578,127.75415)"
         clip-rule="evenodd"
         id="path11" />
    </clipPath>
    <clipPath
       clipPathUnits="userSpaceOnUse"
       id="clipPath12">
      <path
         d="M 0,0 H 1059 V 447 H 0 Z"
         transform="matrix(19.523158,0,0,-19.523158,-12487.79,4629.4504)"
         clip-rule="evenodd"
         id="path12" />
    </clipPath>
    <clipPath
       clipPathUnits="userSpaceOnUse"
       id="clipPath13">
      <path
         d="M 0,0 H 1059 V 447 H 0 Z"
         transform="matrix(19.546174,0,0,-19.546174,-8233.658,6037.2773)"
         clip-rule="evenodd"
         id="path13" />
    </clipPath>
    <clipPath
       clipPathUnits="userSpaceOnUse"
       id="clipPath14">
      <path
         d="M 0,0 H 1059 V 447 H 0 Z"
         transform="matrix(19.517478,0,0,-19.517478,-8282.4673,1339.9351)"
         clip-rule="evenodd"
         id="path14" />
    </clipPath>
  </defs>
  <g
     id="g1">
    <g
       id="g28">
      <path
         d="m 387.14001,144.83 c 28.07334,-0.46001 64.66333,7.95 109.76999,25.23 45.11332,17.27333 65.31003,9.01001 60.59,-24.79"
         style="fill:none;stroke:#000000;stroke-width:1;stroke-linecap:butt;stroke-linejoin:miter;stroke-miterlimit:10;stroke-dasharray:none;stroke-opacity:1"
         transform="matrix(0.99839282,0,0,0.99839282,-231.11374,-136.93549)"
         clip-path="url(#clipPath1)"
         id="path15" />
      <path
         d="m 387.14001,144.88 c -3e-5,0.39782 -0.0761,0.78049 -0.22839,1.14803 -0.15225,0.36754 -0.36902,0.69197 -0.6503,0.97328 -0.28134,0.2813 -0.60577,0.49808 -0.9733,0.65032 -0.36755,0.15223 -0.75021,0.22836 -1.14801,0.22837 -0.39782,-1e-5 -0.78051,-0.0761 -1.1481,-0.22837 -0.36752,-0.15224 -0.69192,-0.36902 -0.97323,-0.65032 -0.28134,-0.28131 -0.49811,-0.60574 -0.65033,-0.97328 -0.15226,-0.36754 -0.22837,-0.75021 -0.22834,-1.14803 -3e-5,-0.39784 0.0761,-0.78053 0.22834,-1.14807 0.15222,-0.36754 0.36899,-0.69197 0.65033,-0.97326 0.28131,-0.28131 0.60571,-0.4981 0.97323,-0.65033 0.36759,-0.15222 0.75028,-0.22834 1.1481,-0.22834 0.3978,0 0.78046,0.0761 1.14805,0.22834 0.36752,0.15223 0.69192,0.36902 0.97326,0.65033 0.28128,0.28129 0.49805,0.60572 0.6503,0.97326 0.15225,0.36754 0.22836,0.75023 0.22839,1.14807 z"
         style="fill:#000000;fill-opacity:1;fill-rule:nonzero;stroke:#000000;stroke-width:1;stroke-linecap:butt;stroke-linejoin:miter;stroke-miterlimit:10;stroke-dasharray:none;stroke-opacity:1"
         transform="matrix(0.99839282,0,0,0.99839282,-231.11374,-136.93549)"
         clip-path="url(#clipPath2)"
         id="path16" />
      <path
         d="m 556.77002,140.07001 4.44,6.44999 -3.71002,-1.25 -3.22998,2.22 z"
         style="fill:#000000;fill-opacity:1;fill-rule:nonzero;stroke:#000000;stroke-width:1;stroke-linecap:butt;stroke-linejoin:miter;stroke-miterlimit:10;stroke-dasharray:none;stroke-opacity:1"
         transform="matrix(0.99839282,0,0,0.99839282,-231.11374,-136.93549)"
         clip-path="url(#clipPath3)"
         id="path17" />
      <path
         d="m 442.85999,186.57001 c 6.25332,-13.97335 28.83999,-16.14667 67.76001,-6.52001 38.91998,9.62667 56.02331,-2.21333 51.30999,-35.52"
         style="fill:none;stroke:#000000;stroke-width:1;stroke-linecap:butt;stroke-linejoin:miter;stroke-miterlimit:10;stroke-dasharray:none;stroke-opacity:1"
         transform="matrix(0.99839282,0,0,0.99839282,-231.11374,-136.93549)"
         clip-path="url(#clipPath4)"
         id="path18" />
      <path
         d="m 444.63,189.3 c -3e-5,0.39781 -0.0762,0.78049 -0.22839,1.14803 -0.15225,0.36755 -0.36905,0.69198 -0.65033,0.97328 -0.28134,0.2813 -0.60574,0.49806 -0.97326,0.6503 -0.36756,0.15225 -0.75022,0.22838 -1.14802,0.22839 -0.39785,-1e-5 -0.78054,-0.0761 -1.14813,-0.22838 -0.36752,-0.15223 -0.69192,-0.36901 -0.9732,-0.65031 -0.28134,-0.2813 -0.49814,-0.60573 -0.65036,-0.97328 -0.15226,-0.36754 -0.22834,-0.75022 -0.22831,-1.14803 -3e-5,-0.39784 0.0761,-0.78053 0.22831,-1.14808 0.15222,-0.36754 0.36902,-0.69196 0.65036,-0.97325 0.28128,-0.28132 0.60568,-0.49808 0.9732,-0.65032 0.36759,-0.15224 0.75028,-0.22835 1.14813,-0.22835 0.3978,0 0.78046,0.0761 1.14798,0.22835 0.36753,0.15224 0.69196,0.369 0.9733,0.65032 0.28128,0.28129 0.49805,0.60571 0.6503,0.97325 0.15225,0.36755 0.22839,0.75024 0.22842,1.14808 z"
         style="fill:#000000;fill-opacity:1;fill-rule:nonzero;stroke:#000000;stroke-width:1;stroke-linecap:butt;stroke-linejoin:miter;stroke-miterlimit:10;stroke-dasharray:none;stroke-opacity:1"
         transform="matrix(0.99839282,0,0,0.99839282,-231.11374,-136.93549)"
         clip-path="url(#clipPath5)"
         id="path19" />
      <path
         d="m 561.20001,139.33 4.44,6.44 -3.71002,-1.24 -3.21997,2.22 z"
         style="fill:#000000;fill-opacity:1;fill-rule:nonzero;stroke:#000000;stroke-width:1;stroke-linecap:butt;stroke-linejoin:miter;stroke-miterlimit:10;stroke-dasharray:none;stroke-opacity:1"
         transform="matrix(0.99839282,0,0,0.99839282,-231.11374,-136.93549)"
         clip-path="url(#clipPath6)"
         id="path20" />
      <path
         d="m 362.57864,214.30341 -1.76129,2.69677 -0.83728,-0.54681 1.76129,-2.69678 z m -3.4649,5.27887 -1.6405,2.4593 -0.83191,-0.55493 1.6405,-2.45931 z m -3.22293,4.80337 c -0.5958,0.87697 -1.18036,1.73074 -1.75376,2.56133 l -0.82293,-0.56812 c 0.5715,-0.8279 1.15469,-1.67963 1.74954,-2.55519 z m -3.53974,5.12453 c -0.5802,0.82463 -1.14486,1.61873 -1.694,2.38226 l -0.81189,-0.58383 c 0.54795,-0.76199 1.11066,-1.5533 1.68808,-2.3739 z m -3.36883,4.68205 c -0.67636,0.91628 -1.32654,1.78098 -1.95056,2.59407 l -0.79334,-0.60883 c 0.62021,-0.80818 1.26663,-1.66789 1.93933,-2.57914 z m -3.745,4.87981 c -0.6896,0.85635 -1.34082,1.63734 -1.95361,2.34297 l -0.755,-0.65573 c 0.60495,-0.69649 1.24819,-1.46796 1.92974,-2.31441 z m -3.99334,4.55761 c -0.90549,0.91336 -1.70203,1.60697 -2.38968,2.08083 l -0.56745,-0.82343 c 0.63633,-0.43849 1.38532,-1.0923 2.24692,-1.96141 z m -5.64368,2.22522 c -0.4205,-0.61134 -0.57636,-1.67962 -0.46762,-3.20488 l 0.9975,0.0711 c -0.0921,1.29243 0.006,2.14813 0.29403,2.56709 l -0.82391,0.56668 z m -0.0745,-6.06608 c 0.10095,-0.5416 0.21972,-1.11759 0.35629,-1.72795 0.12772,-0.56981 0.24579,-1.11623 0.35422,-1.63925 l 0.97918,0.20303 c -0.10922,0.52688 -0.22839,1.0784 -0.35751,1.65454 -0.13412,0.59947 -0.25052,1.16377 -0.34915,1.69292 z m 1.24566,-6.22057 c 0.19181,-1.17149 0.31461,-2.1775 0.36841,-3.01803 l 0.99799,0.0639 c -0.0559,0.87315 -0.18247,1.91171 -0.37952,3.11566 z m 0.14853,-5.59874 c -0.0857,-0.16417 -0.20706,-0.2288 -0.3641,-0.19394 -0.31736,0.0705 -0.74729,0.36013 -1.28986,0.86893 l -0.68408,-0.7294 c 0.67578,-0.63377 1.2615,-1.00569 1.75714,-1.11575 0.65604,-0.14568 1.14517,0.0901 1.46738,0.70742 z m -3.55148,2.81963 c -0.53723,0.68529 -1.12155,1.48196 -1.75299,2.39 l -0.82099,-0.57093 c 0.64234,-0.92372 1.23801,-1.73573 1.78699,-2.43602 z m -3.46774,4.95059 c -0.4935,0.76119 -1.00956,1.57571 -1.5481,2.44359 l -0.84967,-0.52728 c 0.54184,-0.87323 1.06143,-1.69333 1.55872,-2.46032 z m -3.11838,5.01904 c -0.33795,0.56324 -0.68183,1.1416 -1.03159,1.73513 -0.2193,0.37187 -0.43661,0.73443 -0.65197,1.0877 l -0.85389,-0.5205 c 0.21311,-0.34957 0.42789,-0.70787 0.64435,-1.07492 0.35181,-0.59696 0.69702,-1.1776 1.03562,-1.74193 z m -3.36182,5.45096 c -0.55163,0.82158 -1.0954,1.58826 -1.63125,2.30004 l -0.79889,-0.60148 c 0.52496,-0.69732 1.05829,-1.44934 1.59994,-2.25602 z m -3.69031,4.80707 c -0.71786,0.79123 -1.42053,1.47562 -2.10803,2.05318 l -0.64319,-0.76569 c 0.65274,-0.54834 1.32294,-1.20148 2.01056,-1.9594 z m -4.73367,3.77565 c -1.09125,0.50383 -2.1445,0.71164 -3.15976,0.62343 l 0.0865,-0.99625 c 0.83887,0.0729 1.72354,-0.10547 2.65402,-0.53508 l 0.41919,0.9079 z m -6.10541,-0.56233 c -0.73346,-0.55294 -1.43304,-1.29645 -2.09875,-2.23055 l 0.81433,-0.58035 c 0.60608,0.8504 1.23489,1.52119 1.88641,2.01237 z m -3.69067,-4.95671 c -0.4028,-0.82538 -0.79202,-1.73471 -1.16763,-2.72799 l 0.93536,-0.35369 c 0.36466,0.96437 0.74164,1.84538 1.13095,2.64305 z m -2.16827,-5.67733 c -0.2703,-0.88426 -0.53241,-1.81762 -0.78641,-2.80009 l 0.96814,-0.25034 c 0.25036,0.9684 0.50854,1.88778 0.77456,2.75811 z m -1.52536,-5.89894 -0.11542,-0.5309 c -0.17438,-0.81161 -0.37137,-1.61587 -0.591,-2.41276 l 0.96405,-0.26566 c 0.22464,0.81517 0.42602,1.63716 0.60412,2.46599 l 0.11542,0.5309 z m -1.59168,-5.77389 c -0.32754,-0.93389 -0.68744,-1.85806 -1.07968,-2.77255 l 0.91901,-0.39417 c 0.4013,0.93575 0.76941,1.881 1.10434,2.83575 z m -2.32416,-5.42993 c -0.44619,-0.87752 -0.92337,-1.74588 -1.43145,-2.60506 l 0.86077,-0.509 c 0.51871,0.8771 1.00608,1.76403 1.46204,2.66081 z m -3.03524,-5.13591 c -0.53986,-0.79758 -1.10773,-1.5873 -1.70359,-2.36914 l 0.79535,-0.60614 c 0.60727,0.79682 1.18604,1.60173 1.73636,2.41473 z m -3.5756,-4.69184 c -0.64566,-0.75886 -1.31894,-1.51019 -2.01977,-2.254 l 0.72778,-0.68582 c 0.7124,0.75602 1.39694,1.51996 2.05365,2.29184 z m -4.05774,-4.31993 c -0.70309,-0.68164 -1.43069,-1.35696 -2.1828,-2.02597 l 0.66462,-0.74719 c 0.76245,0.67816 1.50051,1.36323 2.21423,2.05521 z m -4.51055,-4.01189 c -0.74158,-0.60737 -1.50342,-1.20858 -2.28553,-1.80366 l 0.60553,-0.79581 c 0.79172,0.6024 1.5629,1.211 2.3136,1.82582 z m -4.66279,-3.54959 c -0.81356,-0.57704 -1.64639,-1.14779 -2.4985,-1.71226 l 0.55231,-0.83365 c 0.86117,0.57051 1.70276,1.14726 2.52475,1.73024 z m -5.05163,-3.34938 c -0.81094,-0.50354 -1.6391,-1.0027 -2.48447,-1.49746 l 0.50513,-0.86304 c 0.85251,0.49896 1.68811,1.00261 2.5068,1.51096 z m -5.06918,-2.96687 c -0.87824,-0.48509 -1.77326,-0.96556 -2.68503,-1.44139 l 0.46264,-0.88654 c 0.91904,0.4796 1.82099,0.96379 2.70591,1.45259 z m -5.3844,-2.81218 c -0.8588,-0.42445 -1.73069,-0.84471 -2.6156,-1.26077 l 0.42547,-0.90497 c 0.8906,0.4187 1.76834,0.8418 2.63324,1.26929 z m -5.31409,-2.49824 c -0.91293,-0.40847 -1.84004,-0.81319 -2.7813,-1.21419 l 0.39194,-0.91999 c 0.9471,0.40349 1.87968,0.81061 2.79775,1.22136 z m -5.64545,-2.40502 c -0.88356,-0.35856 -1.77771,-0.71355 -2.68242,-1.06496 l 0.36206,-0.93215 c 0.90926,0.35318 1.80805,0.71002 2.6964,1.07051 z m -5.43265,-2.11011 c -0.92857,-0.34532 -1.86819,-0.68722 -2.81889,-1.02574 l 0.33545,-0.94204 c 0.95523,0.34011 1.89923,0.68362 2.83199,1.0305 z m -5.70657,-2.03201 c -0.74415,-0.2538 -1.49477,-0.50564 -2.25181,-0.75551 l 0.31341,-0.94961 c 0.76085,0.25111 1.51459,0.50399 2.26122,0.75865 z"
         style="fill:#000000;fill-opacity:1;fill-rule:nonzero;stroke:none"
         transform="matrix(0.99839282,0,0,0.99839282,-231.11374,-136.93549)"
         clip-path="url(#clipPath7)"
         id="path21" />
      <path
         d="m 366.79001,211.50999 c -3e-5,0.39782 -0.0761,0.78049 -0.2284,1.14803 -0.15225,0.36754 -0.36901,0.69196 -0.65029,0.97328 -0.28135,0.2813 -0.60578,0.49806 -0.9733,0.65032 -0.36752,0.15223 -0.75021,0.22836 -1.14801,0.22837 -0.39786,-10e-6 -0.78055,-0.0761 -1.14807,-0.22839 -0.36759,-0.15224 -0.69202,-0.369 -0.9733,-0.6503 -0.28131,-0.28132 -0.49808,-0.60574 -0.65033,-0.97328 -0.15225,-0.36754 -0.22833,-0.75021 -0.2283,-1.14803 -3e-5,-0.39784 0.0761,-0.78053 0.2283,-1.14807 0.15225,-0.36755 0.36902,-0.69197 0.65033,-0.97326 0.28128,-0.2813 0.60571,-0.49808 0.9733,-0.65032 0.36752,-0.15223 0.75021,-0.22835 1.14807,-0.22835 0.3978,0 0.78046,0.0761 1.14798,0.22835 0.36755,0.15224 0.69198,0.36902 0.97333,0.65032 0.28128,0.28129 0.49804,0.60571 0.65029,0.97326 0.15226,0.36754 0.22837,0.75023 0.2284,1.14807 z"
         style="fill:#000000;fill-opacity:1;fill-rule:nonzero;stroke:#000000;stroke-width:1;stroke-linecap:butt;stroke-linejoin:miter;stroke-miterlimit:10;stroke-dasharray:none;stroke-opacity:1"
         transform="matrix(0.99839282,0,0,0.99839282,-231.11374,-136.93549)"
         clip-path="url(#clipPath8)"
         id="path22" />
      <path
         d="m 233.06,183.73 7.75,-1.12999 -2.76,2.77999 0.56,3.87 z"
         style="fill:#000000;fill-opacity:1;fill-rule:nonzero;stroke:#000000;stroke-width:1;stroke-linecap:butt;stroke-linejoin:miter;stroke-miterlimit:10;stroke-dasharray:none;stroke-opacity:1"
         transform="matrix(0.99839282,0,0,0.99839282,-231.11374,-136.93549)"
         clip-path="url(#clipPath9)"
         id="path23" />
      <path
         d="m 441.31442,189.68782 c -0.80658,-0.65633 -1.61395,-1.28792 -2.42215,-1.89479 l 0.60047,-0.79965 c 0.81845,0.61456 1.63604,1.25416 2.45285,1.91881 z m -4.84942,-3.64133 c -0.81058,-0.55789 -1.62134,-1.09071 -2.43229,-1.59848 l 0.53064,-0.84756 c 0.82386,0.51584 1.64673,1.05661 2.46866,1.62231 z m -5.0199,-3.13348 c -0.88168,-0.49411 -1.76468,-0.95944 -2.64893,-1.39601 l 0.44269,-0.89667 c 0.89999,0.44432 1.79837,0.91776 2.69513,1.42033 z m -5.30371,-2.61848 c -0.92511,-0.39534 -1.85175,-0.75937 -2.77991,-1.09209 l 0.3374,-0.94135 c 0.94696,0.33945 1.89212,0.71074 2.83545,1.11388 z m -5.61417,-2.00913 c -0.94565,-0.27306 -1.89276,-0.5137 -2.8414,-0.72197 l 0.21442,-0.97674 c 0.96982,0.21292 1.93796,0.4589 2.90439,0.73796 z m -5.76834,-1.26083 c -0.9809,-0.14594 -1.96298,-0.25737 -2.94626,-0.33429 l 0.078,-0.99695 c 1.00643,0.0787 2.01156,0.19279 3.01541,0.34213 l -0.14716,0.98911 z m -5.89947,-0.46173 c -0.98175,-0.008 -1.96482,0.0181 -2.94919,0.0783 l -0.061,-0.99813 c 1.00742,-0.0616 2.01355,-0.0884 3.0184,-0.0802 l -0.008,0.99997 z m -5.90809,0.36143 c -0.97409,0.12672 -1.94982,0.28665 -2.92721,0.47981 l -0.19391,-0.98101 c 0.99887,-0.19741 1.99622,-0.36089 2.9921,-0.49044 z m -5.78958,1.1393 c -0.95602,0.25148 -1.91348,0.53454 -2.87237,0.84918 l -0.31177,-0.95016 c 0.97781,-0.32085 1.95441,-0.60955 2.92975,-0.86612 z m -5.66446,1.85295 c -0.89981,0.35164 -1.80096,0.73093 -2.70346,1.13789 l -0.41107,-0.91159 c 0.91788,-0.41392 1.83475,-0.79982 2.75058,-1.1577 z m -5.41592,2.44226 c -0.8765,0.44765 -1.75403,0.92113 -2.6326,1.42047 l -0.49408,-0.86941 c 0.89142,-0.50661 1.78204,-0.98714 2.67185,-1.44162 z m -5.14005,2.91376 c -0.83746,0.5215 -1.67578,1.06622 -2.51492,1.6342 l -0.56048,-0.82816 c 0.85,-0.57531 1.69894,-1.12695 2.54678,-1.65492 z m -5.02981,3.40355 c -0.79141,0.57243 -1.60904,1.12188 -2.45288,1.64839 l -0.52936,-0.84842 c 0.82468,-0.51451 1.62338,-1.05127 2.39618,-1.61025 z m -5.06171,3.15817 c -0.89489,0.47987 -1.81631,0.93698 -2.76422,1.37131 l -0.41656,-0.90912 c 0.92907,-0.42571 1.83181,-0.87354 2.70825,-1.34351 z m -5.56183,2.55682 c -0.89712,0.35088 -1.81564,0.68325 -2.75549,0.99712 l -0.31677,-0.94852 c 0.92422,-0.30868 1.82693,-0.63531 2.70807,-0.9799 z m -5.63641,1.8824 c -0.98074,0.2764 -1.98282,0.53429 -3.00623,0.77368 l -0.22778,-0.97372 c 1.00879,-0.23601 1.99637,-0.49017 2.96277,-0.76248 z m -5.9971,1.40903 c -0.9346,0.17918 -1.88611,0.34418 -2.85452,0.49498 l -0.15381,-0.9881 c 0.95675,-0.14894 1.89676,-0.31195 2.82004,-0.489 z m -5.80603,0.9039 c -0.9997,0.1219 -2.01584,0.22954 -3.04846,0.32291 l -0.09,-0.99594 c 1.0224,-0.0924 2.02823,-0.19898 3.01746,-0.31961 l 0.12103,0.99264 z m -6.19397,0.55992 c -0.9614,0.0584 -1.93659,0.10521 -2.92557,0.14034 l -0.0355,-0.99936 c 0.98001,-0.0348 1.94684,-0.0812 2.90042,-0.13915 l 0.0607,0.99817 z m -5.836,0.20955 c -0.98166,0.0121 -1.97662,0.0133 -2.98486,0.003 l 0.01,-0.99994 c 1.00003,0.01 1.98764,0.009 2.96283,-0.003 l 0.0123,0.99994 z m -6.04419,-0.0587 c -1.03158,-0.0317 -2.0762,-0.0743 -3.13385,-0.12781 l 0.0506,-0.99872 c 1.05057,0.0532 2.08853,0.0955 3.11389,0.12698 l -0.0306,0.99955 z m -6.13452,-0.30684 c -0.94843,-0.065 -1.90768,-0.13846 -2.87775,-0.22048 l 0.0843,-0.99643 c 0.96466,0.0816 1.91861,0.15467 2.86182,0.21926 l -0.0684,0.99765 z m -5.81311,-0.4916 c -0.98734,-0.0987 -1.98499,-0.206 -2.99298,-0.32177 l 0.11413,-0.99347 c 1.00361,0.11526 1.9964,0.222 2.9784,0.32022 l -0.0995,0.99502 z m -6.04364,-0.69418 c -1.02628,-0.13254 -2.06238,-0.27354 -3.10831,-0.42303 l 0.14148,-0.98993 c 1.0409,0.14877 2.07254,0.28917 3.09494,0.4212 z m -6.06943,-0.86476 c -0.94174,-0.14629 -1.89166,-0.29929 -2.84979,-0.45902 l 0.16443,-0.98638 c 0.95386,0.15901 1.90014,0.31143 2.83887,0.45724 z m -5.74496,-0.95776 c -0.97312,-0.17298 -1.95325,-0.35247 -2.9404,-0.53846 l 0.18518,-0.98269 c 0.98401,0.18542 1.96075,0.36429 2.93021,0.53659 z m -5.92618,-1.11661 c -1.00534,-0.19983 -2.01569,-0.40578 -3.03107,-0.61786 l 0.20441,-0.97888 c 1.01257,0.21148 2.01977,0.41679 3.02161,0.61593 z m -6.1095,-1.27587 -2.84143,-0.63346 0.21759,-0.97605 2.84143,0.63347 z m -5.67026,-1.28804 -2.85745,-0.68449 0.23297,-0.97247 2.85746,0.68449 z m -5.75839,-1.40245 -2.93014,-0.74787 0.24731,-0.96894 2.93015,0.74788 z m -5.90338,-1.52925 -3.00281,-0.81129 0.26081,-0.96539 3.0028,0.81129 z m -5.96014,-1.6313 -2.76996,-0.7863 0.27307,-0.96201 2.76996,0.78631 z m -5.57486,-1.59994 -2.82901,-0.83783 0.28393,-0.95884 2.82901,0.83783 z m -5.69277,-1.70298 -2.88807,-0.88937 0.29431,-0.95572 2.88807,0.88937 z m -5.8106,-1.80603 -2.94715,-0.94088 0.30414,-0.95264 2.94714,0.94089 z m -5.92745,-1.9087 -0.20076,-0.0658 0.31137,-0.95029 0.20076,0.0658 z"
         style="fill:#000000;fill-opacity:1;fill-rule:nonzero;stroke:none"
         transform="matrix(0.99839282,0,0,0.99839282,-231.11374,-136.93549)"
         clip-path="url(#clipPath10)"
         id="path24" />
      <path
         d="m 236.60001,178.55 7.73999,-1.15001 -2.75,2.78 0.57,3.87001 z"
         style="fill:#000000;fill-opacity:1;fill-rule:nonzero;stroke:#000000;stroke-width:1;stroke-linecap:butt;stroke-linejoin:miter;stroke-miterlimit:10;stroke-dasharray:none;stroke-opacity:1"
         transform="matrix(0.99839282,0,0,0.99839282,-231.11374,-136.93549)"
         clip-path="url(#clipPath11)"
         id="path25" />
      <path
         d="m 52,289 c 4.666668,28 22.666664,60.33334 54,97 31.33333,36.66666 70,55.33334 116,56 23.33333,0 44.66666,-6 64,-18 19.33334,-12 33.66666,-27 43,-45 28,42 61.66666,63 101,63 24.66666,0 46,-7.33334 64,-22 18,-14.66666 27.33331,-34.33334 28,-59 0,-19.33334 -4.66669,-35 -14,-47 -9.33334,-12 -18.33334,-19.33334 -27,-22 -8.66666,-2.66666 -16.33334,-4 -23,-4 -12.66666,0 -23,3.66666 -31,11 -8,7.33334 -12,17 -12,29 0,30.66666 16.66666,51.66666 50,63 -7.33334,8.66666 -20.66666,13 -40,13 -8.66666,0 -15,-0.66666 -19,-2 -25.33334,-10.66666 -44,-32.66666 -56,-66 -40,-147.33334 -60,-233.33333 -60,-258 0,-18.666668 5.33334,-32 16,-40 10.66666,-8 22.33334,-12 35,-12 24.66666,0 49,11 73,33 24,22 40.33334,49 49,81 2,6.66667 4,10.33333 6,11 2,0.66667 7.33334,1.33333 16,2 h 4 c 10,0 15,-2.66667 15,-8 0,-0.66667 -0.66666,-4.33333 -2,-11 C 491.33334,96 470.66666,62.333336 440,33 409.33334,3.666666 373.66666,-11 333,-11 286.33334,-11 251,10 227,52 199.66667,10.666664 168.33334,-10 133,-10 h -6 C 94.333328,-10 71,-1.333334 57,16 43,33.333336 35.666668,51.666664 35,71 c 0,21.333336 6.333332,38.66666 19,52 12.666664,13.33333 27.666664,20 45,20 28.66667,0 43,-14 43,-42 C 142,87.666664 138,76 130,66 122,56 114.33334,49.333332 107,46 99.666664,42.666668 95.333336,41 94,41 l -3,-1 c 0,-0.666668 2,-2 6,-4 4,-2 9.33334,-4.333334 16,-7 6.66666,-2.666666 13,-3.666666 19,-3 24,0 44.66667,15 62,45 6,10.666664 13.66667,33.33333 23,68 9.33333,34.66667 18.66667,70.66666 28,108 9.33333,37.33334 14.66666,59.33334 16,66 3.33334,18 5,31 5,39 0,18.66666 -5,32 -15,40 -10,8 -21.33333,12 -34,12 -26.66667,0 -51.66667,-10.66666 -75,-32 -23.33334,-21.33334 -39.66666,-48.66666 -49,-82 -1.333336,-6 -3,-9.33334 -5,-10 -2,-0.66666 -7.333336,-1.33334 -16,-2 H 58 c -4,4 -6,7.66666 -6,11 z"
         style="fill:#000000;fill-opacity:1;fill-rule:nonzero;stroke:#000000;stroke-width:1;stroke-linecap:butt;stroke-linejoin:miter;stroke-miterlimit:10;stroke-dasharray:none;stroke-opacity:0.1537"
         transform="matrix(0.01639079,0,0,-0.01639079,204.68474,66.493681)"
         clip-path="url(#clipPath12)"
         id="path26" />
      <path
         d="m 347,338 c -6.66666,0 -24.33334,3.66666 -53,11 -28.66666,7.33334 -49.66667,11 -63,11 -13.33333,0 -24.66667,-1.33334 -34,-4 -9.33333,-2.66666 -17,-6 -23,-10 -6,-4 -10,-7.66666 -12,-11 -2,-3.33334 -4.33333,-7 -7,-11 l -2,-4 c -2,-2 -7,-3 -15,-3 -14,0 -21,2.66666 -21,8 0,3.33334 1,8 3,14 8.66667,26 23,48.33334 43,67 20,18.66666 42,30 66,34 8,1.33334 13.66667,2 17,2 16.66666,0 31.66666,-5.66666 45,-17 13.33334,-11.33334 26,-22.33334 38,-33 12,-10.66666 24.66666,-16.33334 38,-17 14.66666,0 29.33334,11 44,33 14.66666,22 22.33334,33 23,33 0.66666,0.66666 5.66666,1 15,1 h 13 c 4,-4 6,-6.66666 6,-8 0,-2.66666 -1.66666,-7.33334 -5,-14 -3.33334,-6.66666 -8,-13.66666 -14,-21 -6,-7.33334 -11.66666,-14.66666 -17,-22 -5.33334,-7.33334 -10,-13.66666 -14,-19 l -7,-9 C 382.33334,315 337,270 275,214 213,158 174.66667,122 160,106 l -12,-12 15,-1 c 14.66667,0 36,-3.666664 64,-11 28,-7.333336 49,-11 63,-11 25.33334,0 48.66666,6.333336 70,19 21.33334,12.66666 35.33334,29.33333 42,50 2.66666,6 5,9.66667 7,11 2,1.33333 7,2 15,2 12.66666,0 19,-3.33333 19,-10 0,-3.33333 -0.33334,-6.33333 -1,-9 C 430.66666,92.666664 408.66666,58.333336 376,31 343.33334,3.666666 310.66666,-10.333333 278,-11 260.66666,-11 245.33333,-5.333334 232,6 218.66667,17.333334 205.66667,28.666666 193,40 180.33333,51.333336 167.66667,57 155,57 125.66666,57 99.333336,37 76,-3 72,-8.333334 66.333336,-11 59,-11 H 54 41 c -4,4 -6,7 -6,9 0,10 19.333332,38.666664 58,86 26,30 70,73.33333 132,130 62,56.66666 100.33334,92.66666 115,108 8,10.66666 10.33334,16 7,16 z"
         style="fill:#000000;fill-opacity:1;fill-rule:nonzero;stroke:#000000;stroke-width:1;stroke-linecap:butt;stroke-linejoin:miter;stroke-miterlimit:10;stroke-dasharray:none;stroke-opacity:0.1535"
         transform="matrix(0.01637149,0,0,-0.01637149,134.79725,89.452557)"
         clip-path="url(#clipPath13)"
         id="path27" />
      <path
         d="m 21,287 c 0,9.33334 5,25.33334 15,48 10,22.66666 26,46.33334 48,71 22,24.66666 46.66667,36.66666 74,36 27.33333,0 49.33333,-7.66666 66,-23 16.66667,-15.33334 25.33333,-36.66666 26,-64 -1.33333,-12.66666 -2.33333,-19.66666 -3,-21 0,-2 -5.33333,-17.33334 -16,-46 -10.66667,-28.66666 -21.66667,-61 -33,-97 -11.33333,-36 -16.66667,-64.66666 -16,-86 0,-28.666672 4.66667,-48.666664 14,-60 9.33333,-11.333336 23.33333,-17.333334 42,-18 15.33333,0 29.66666,3.666666 43,11 13.33334,7.333332 23.66666,15 31,23 7.33334,8 16.33334,19 27,33 0,0.666664 1.66666,7.33334 5,20 3.33334,12.66666 8,32.33333 14,59 6,26.66667 12.33334,51.33333 19,74 25.33334,100 39.33334,152.33334 42,157 8.66666,18 23,27 43,27 8.66666,0 15.66666,-2.33334 21,-7 5.33334,-4.66666 9,-8.66666 11,-12 2,-3.33334 2.66666,-6.33334 2,-9 0,-8.66666 -16.33334,-78.66666 -49,-210 -32.66666,-131.333344 -51.33334,-203.333333 -56,-216 -18.66666,-55.333336 -51,-99.33333 -97,-132 -46,-32.66667 -92,-49.33333 -138,-50 -30,0 -56.333328,7.33333 -79,22 -22.666668,14.66667 -34,36.66667 -34,66 0,14.66666 2.333332,27 7,37 4.666668,10 11,17.333332 19,22 8,4.666668 14.666664,8 20,10 5.333336,2 11,3 17,3 29.33333,0 44,-14 44,-42 0,-13.33334 -4,-25 -12,-35 -8,-10 -15.66666,-16.66667 -23,-20 -7.33334,-3.33333 -11.66666,-5 -13,-5 l -3,-1 c 1.33334,-3.33333 7.66666,-7.33333 19,-12 11.33333,-4.66667 22.66667,-7 34,-7 h 8 c 11.33333,0 20,0.66667 26,2 22,6 42.33333,18.66667 61,38 18.66666,19.33334 33,40 43,62 10,22 17.66666,40.666666 23,56 5.33334,15.333334 8,25.333332 8,30 l -6,-4 c -4,-2.666667 -10.33334,-6.333333 -19,-11 -8.66666,-4.666667 -17.33334,-8.6666665 -26,-12 -13.33334,-3.333334 -26.33333,-5 -39,-5 -30.66667,0 -57.66667,7.333333 -81,22 -23.33334,14.666668 -38.66666,38.333332 -46,71 -0.66666,4.666664 -1,15 -1,31 0,38 11.66666,87.66666 35,149 23.33333,61.33334 35,100.33334 35,117 0,0.66666 0,1.33334 0,2 0,6 0,10 0,12 0,2 -1.33333,4.33334 -4,7 -2.66667,2.66666 -6.33333,4 -11,4 h -4 c -15.33333,0 -29.33334,-6.33334 -42,-19 C 99.333336,372.33334 89.333336,358.66666 82,344 74.666664,329.33334 69,315.33334 65,302 61,288.66666 58.333332,281.33334 57,280 55.666668,278.66666 50.333336,278 41,278 H 27 c -4,4 -6,7 -6,9 z"
         style="fill:#000000;fill-opacity:1;fill-rule:nonzero;stroke:#000000;stroke-width:1;stroke-linecap:butt;stroke-linejoin:miter;stroke-miterlimit:10;stroke-dasharray:none;stroke-opacity:0.1537"
         transform="matrix(0.01639556,0,0,-0.01639556,135.79569,12.582318)"
         clip-path="url(#clipPath14)"
         id="path28" />
    </g>
  </g>
</svg>
