<?xml version="1.0" encoding="UTF-8" standalone="no"?>
<!-- Created with Inkscape (http://www.inkscape.org/) -->

<svg
   version="1.1"
   id="svg1"
   width="468.00674"
   height="68.479645"
   viewBox="0 0 468.00675 68.479645"
   xmlns="http://www.w3.org/2000/svg"
   xmlns:svg="http://www.w3.org/2000/svg">
  <defs
     id="defs1">
    <clipPath
       clipPathUnits="userSpaceOnUse"
       id="clipPath2">
      <path
         d="M 81.250008,9.375001 H 1575.0001 V 234.37502 H 81.250008 Z"
         transform="matrix(0.35624419,0,0,0.35624419,62.398265,116.30986)"
         clip-rule="evenodd"
         id="path2" />
    </clipPath>
    <clipPath
       clipPathUnits="userSpaceOnUse"
       id="clipPath4">
      <path
         d="M 81.250008,9.375001 H 1575.0001 V 234.37502 H 81.250008 Z"
         transform="matrix(0.35624419,0,0,0.35624419,62.398265,116.30986)"
         clip-rule="evenodd"
         id="path4" />
    </clipPath>
    <clipPath
       clipPathUnits="userSpaceOnUse"
       id="clipPath6">
      <path
         d="M 81.250008,9.375001 H 1575.0001 V 234.37502 H 81.250008 Z"
         transform="matrix(0.35624419,0,0,0.35624419,62.398265,116.30986)"
         clip-rule="evenodd"
         id="path6" />
    </clipPath>
    <clipPath
       clipPathUnits="userSpaceOnUse"
       id="clipPath8">
      <path
         d="M 81.250008,9.375001 H 1575.0001 V 234.37502 H 81.250008 Z"
         transform="matrix(25.323086,0,0,-25.323086,-2566.2372,2090.5147)"
         clip-rule="evenodd"
         id="path8" />
    </clipPath>
    <clipPath
       clipPathUnits="userSpaceOnUse"
       id="clipPath10">
      <path
         d="M 81.250008,9.375001 H 1575.0001 V 234.37502 H 81.250008 Z"
         transform="matrix(25.363228,0,0,-25.363228,-13107.341,3161.4298)"
         clip-rule="evenodd"
         id="path10" />
    </clipPath>
    <clipPath
       clipPathUnits="userSpaceOnUse"
       id="clipPath12">
      <path
         d="M 81.250008,9.375001 H 1575.0001 V 234.37502 H 81.250008 Z"
         transform="matrix(0.35624419,0,0,0.35624419,62.398265,116.30986)"
         clip-rule="evenodd"
         id="path12" />
    </clipPath>
    <clipPath
       clipPathUnits="userSpaceOnUse"
       id="clipPath14">
      <path
         d="M 81.250008,9.375001 H 1575.0001 V 234.37502 H 81.250008 Z"
         transform="matrix(25.320201,0,0,-25.320201,-22681.098,4969.7872)"
         clip-rule="evenodd"
         id="path14" />
    </clipPath>
    <clipPath
       clipPathUnits="userSpaceOnUse"
       id="clipPath16">
      <path
         d="M 81.250008,9.375001 H 1575.0001 V 234.37502 H 81.250008 Z"
         transform="matrix(25.320201,0,0,-25.320201,-23530.9,4969.7872)"
         clip-rule="evenodd"
         id="path16" />
    </clipPath>
    <clipPath
       clipPathUnits="userSpaceOnUse"
       id="clipPath18">
      <path
         d="M 81.250008,9.375001 H 1575.0001 V 234.37502 H 81.250008 Z"
         transform="matrix(25.320201,0,0,-25.320201,-24586.698,4969.7872)"
         clip-rule="evenodd"
         id="path18" />
    </clipPath>
    <clipPath
       clipPathUnits="userSpaceOnUse"
       id="clipPath20">
      <path
         d="M 81.250008,9.375001 H 1575.0001 V 234.37502 H 81.250008 Z"
         transform="matrix(35.813571,0,0,-35.813571,-35675.661,6515.9637)"
         clip-rule="evenodd"
         id="path20" />
    </clipPath>
    <clipPath
       clipPathUnits="userSpaceOnUse"
       id="clipPath22">
      <path
         d="M 81.250008,9.375001 H 1575.0001 V 234.37502 H 81.250008 Z"
         transform="matrix(25.320201,0,0,-25.320201,-25626.199,4969.7872)"
         clip-rule="evenodd"
         id="path22" />
    </clipPath>
    <clipPath
       clipPathUnits="userSpaceOnUse"
       id="clipPath24">
      <path
         d="M 81.250008,9.375001 H 1575.0001 V 234.37502 H 81.250008 Z"
         transform="matrix(25.320201,0,0,-25.320201,-26015.198,4969.7872)"
         clip-rule="evenodd"
         id="path24" />
    </clipPath>
    <clipPath
       clipPathUnits="userSpaceOnUse"
       id="clipPath26">
      <path
         d="M 81.250008,9.375001 H 1575.0001 V 234.37502 H 81.250008 Z"
         transform="matrix(25.320201,0,0,-25.320201,-26587.2,4969.7872)"
         clip-rule="evenodd"
         id="path26" />
    </clipPath>
    <clipPath
       clipPathUnits="userSpaceOnUse"
       id="clipPath28">
      <path
         d="M 81.250008,9.375001 H 1575.0001 V 234.37502 H 81.250008 Z"
         transform="matrix(25.340151,0,0,-25.340151,-37066.77,3445.0437)"
         clip-rule="evenodd"
         id="path28" />
    </clipPath>
    <clipPath
       clipPathUnits="userSpaceOnUse"
       id="clipPath30">
      <path
         d="M 81.250008,9.375001 H 1575.0001 V 234.37502 H 81.250008 Z"
         transform="matrix(0.35624419,0,0,0.35624419,62.398265,116.30986)"
         clip-rule="evenodd"
         id="path30" />
    </clipPath>
    <clipPath
       clipPathUnits="userSpaceOnUse"
       id="clipPath32">
      <path
         d="M 81.250008,9.375001 H 1575.0001 V 234.37502 H 81.250008 Z"
         transform="matrix(0.35624419,0,0,0.35624419,62.398265,116.30986)"
         clip-rule="evenodd"
         id="path32" />
    </clipPath>
    <clipPath
       clipPathUnits="userSpaceOnUse"
       id="clipPath34">
      <path
         d="M 81.250008,9.375001 H 1575.0001 V 234.37502 H 81.250008 Z"
         transform="matrix(0.35624419,0,0,0.35624419,62.398265,116.30986)"
         clip-rule="evenodd"
         id="path34" />
    </clipPath>
    <clipPath
       clipPathUnits="userSpaceOnUse"
       id="clipPath36">
      <path
         d="M 81.250008,9.375001 H 1575.0001 V 234.37502 H 81.250008 Z"
         transform="matrix(0.35624419,0,0,0.35624419,62.398265,116.30986)"
         clip-rule="evenodd"
         id="path36" />
    </clipPath>
    <clipPath
       clipPathUnits="userSpaceOnUse"
       id="clipPath38">
      <path
         d="M 81.250008,9.375001 H 1575.0001 V 234.37502 H 81.250008 Z"
         transform="matrix(25.332929,0,0,-25.332929,-37412.802,4461.2998)"
         clip-rule="evenodd"
         id="path38" />
    </clipPath>
    <clipPath
       clipPathUnits="userSpaceOnUse"
       id="clipPath40">
      <path
         d="M 81.250008,9.375001 H 1575.0001 V 234.37502 H 81.250008 Z"
         transform="matrix(25.332929,0,0,-25.332929,-37962.801,4461.2998)"
         clip-rule="evenodd"
         id="path40" />
    </clipPath>
    <clipPath
       clipPathUnits="userSpaceOnUse"
       id="clipPath42">
      <path
         d="M 81.250008,9.375001 H 1575.0001 V 234.37502 H 81.250008 Z"
         transform="matrix(25.332929,0,0,-25.332929,-38351.8,4461.2998)"
         clip-rule="evenodd"
         id="path42" />
    </clipPath>
    <clipPath
       clipPathUnits="userSpaceOnUse"
       id="clipPath44">
      <path
         d="M 81.250008,9.375001 H 1575.0001 V 234.37502 H 81.250008 Z"
         transform="matrix(25.332929,0,0,-25.332929,-38923.801,4461.2998)"
         clip-rule="evenodd"
         id="path44" />
    </clipPath>
    <clipPath
       clipPathUnits="userSpaceOnUse"
       id="clipPath46">
      <path
         d="M 81.250008,9.375001 H 1575.0001 V 234.37502 H 81.250008 Z"
         transform="matrix(33.851364,0,0,-33.851364,-33172.663,4570.0813)"
         clip-rule="evenodd"
         id="path46" />
    </clipPath>
    <clipPath
       clipPathUnits="userSpaceOnUse"
       id="clipPath48">
      <path
         d="M 81.250008,9.375001 H 1575.0001 V 234.37502 H 81.250008 Z"
         transform="matrix(33.851364,0,0,-33.851364,-38303.901,4570.0813)"
         clip-rule="evenodd"
         id="path48" />
    </clipPath>
    <clipPath
       clipPathUnits="userSpaceOnUse"
       id="clipPath50">
      <path
         d="M 81.250008,9.375001 H 1575.0001 V 234.37502 H 81.250008 Z"
         transform="matrix(0.35624419,0,0,0.35624419,62.398265,116.30986)"
         clip-rule="evenodd"
         id="path50" />
    </clipPath>
    <clipPath
       clipPathUnits="userSpaceOnUse"
       id="clipPath52">
      <path
         d="M 81.250008,9.375001 H 1575.0001 V 234.37502 H 81.250008 Z"
         transform="matrix(25.340151,0,0,-25.340151,-26681.586,3445.0437)"
         clip-rule="evenodd"
         id="path52" />
    </clipPath>
    <clipPath
       clipPathUnits="userSpaceOnUse"
       id="clipPath54">
      <path
         d="M 81.250008,9.375001 H 1575.0001 V 234.37502 H 81.250008 Z"
         transform="matrix(33.768346,0,0,-33.768346,-34228.89,3070.7698)"
         clip-rule="evenodd"
         id="path54" />
    </clipPath>
  </defs>
  <g
     id="g1"
     transform="translate(-32.864712,-4.4502282)">
    <path
       id="path1"
       d="M 112.93,129.35001 C 170.97667,116.45001 225,120 275,140 c 50,20 60,35 30,45 -30,10 -65,5 -105,-15 -40,-20 -45,-31.66667 -15,-35 30,-3.33333 58.33333,0 85,10 26.66666,10 38.33334,18.33333 35,25 -3.33334,6.66667 -15,10 -35,10 -20,0 -43.33333,-6.66667 -70,-20 -26.66667,-13.33333 -25,-20 5,-20 30,0 51.66666,3.33333 65,10 13.33334,6.66667 21.66666,11.66667 25,15 3.33334,3.33333 -5,5 -25,5 -20,0 -40,-5 -60,-15 -20,-10 -8.76666,-11.96666 33.7,-5.89999"
       style="fill:none;stroke:#000000;stroke-width:1;stroke-linecap:butt;stroke-linejoin:miter;stroke-miterlimit:10;stroke-dasharray:none;stroke-opacity:1"
       transform="matrix(0.89826022,0,0,0.89826022,-56.049879,-104.47652)"
       clip-path="url(#clipPath2)" />
    <path
       id="path3"
       d="m 113,130 c -1e-5,0.39781 -0.0761,0.78049 -0.22837,1.14803 -0.15224,0.36753 -0.369,0.69197 -0.65031,0.97328 -0.28131,0.28129 -0.60573,0.49807 -0.97328,0.65031 -0.36754,0.15224 -0.75022,0.22836 -1.14804,0.22838 -0.39783,-2e-5 -0.78052,-0.0761 -1.14806,-0.22838 -0.36754,-0.15224 -0.69196,-0.36902 -0.97326,-0.65031 -0.28131,-0.28131 -0.49808,-0.60575 -0.65033,-0.97328 C 107.07611,130.78049 106.99999,130.39781 107,130 c -1e-5,-0.39784 0.0761,-0.78053 0.22834,-1.14807 0.15225,-0.36754 0.36903,-0.69196 0.65034,-0.97326 0.2813,-0.28131 0.60572,-0.49809 0.97326,-0.65032 C 109.21948,127.07612 109.60217,127 110,127 c 0.39782,0 0.7805,0.0761 1.14805,0.22835 0.36754,0.15223 0.69196,0.36901 0.97327,0.65032 0.28131,0.2813 0.49807,0.60572 0.65031,0.97326 0.15224,0.36754 0.22836,0.75023 0.22837,1.14807 z"
       style="fill:#000000;fill-opacity:1;fill-rule:nonzero;stroke:#000000;stroke-width:1;stroke-linecap:butt;stroke-linejoin:miter;stroke-miterlimit:10;stroke-dasharray:none;stroke-opacity:1"
       transform="matrix(0.89826022,0,0,0.89826022,-56.049879,-104.47652)"
       clip-path="url(#clipPath4)" />
    <path
       id="path5"
       d="m 248.89,149.84 -7.42,2.48001 2.23,-3.22 -1.23999,-3.71001 z"
       style="fill:#000000;fill-opacity:1;fill-rule:nonzero;stroke:#000000;stroke-width:1;stroke-linecap:butt;stroke-linejoin:miter;stroke-miterlimit:10;stroke-dasharray:none;stroke-opacity:1"
       transform="matrix(0.89826022,0,0,0.89826022,-56.049879,-104.47652)"
       clip-path="url(#clipPath6)" />
    <path
       id="path7"
       d="m 52,289 c 4.666668,28 22.666664,60.33334 54,97 31.33333,36.66666 70,55.33334 116,56 23.33333,0 44.66666,-6 64,-18 19.33334,-12 33.66666,-27 43,-45 28,42 61.66666,63 101,63 24.66666,0 46,-7.33334 64,-22 18,-14.66666 27.33331,-34.33334 28,-59 0,-19.33334 -4.66669,-35 -14,-47 -9.33334,-12 -18.33334,-19.33334 -27,-22 -8.66666,-2.66666 -16.33334,-4 -23,-4 -12.66666,0 -23,3.66666 -31,11 -8,7.33334 -12,17 -12,29 0,30.66666 16.66666,51.66666 50,63 -7.33334,8.66666 -20.66666,13 -40,13 -8.66666,0 -15,-0.66666 -19,-2 -25.33334,-10.66666 -44,-32.66666 -56,-66 -40,-147.33334 -60,-233.33333 -60,-258 0,-18.666668 5.33334,-32 16,-40 10.66666,-8 22.33334,-12 35,-12 24.66666,0 49,11 73,33 24,22 40.33334,49 49,81 2,6.66667 4,10.33333 6,11 2,0.66667 7.33334,1.33333 16,2 h 4 c 10,0 15,-2.66667 15,-8 0,-0.66667 -0.66666,-4.33333 -2,-11 C 491.33334,96 470.66666,62.333336 440,33 409.33334,3.666666 373.66666,-11 333,-11 286.33334,-11 251,10 227,52 199.66667,10.666664 168.33334,-10 133,-10 h -6 C 94.333328,-10 71,-1.333334 57,16 43,33.333336 35.666668,51.666664 35,71 c 0,21.333336 6.333332,38.66666 19,52 12.666664,13.33333 27.666664,20 45,20 28.66667,0 43,-14 43,-42 C 142,87.666664 138,76 130,66 122,56 114.33334,49.333332 107,46 99.666664,42.666668 95.333336,41 94,41 l -3,-1 c 0,-0.666668 2,-2 6,-4 4,-2 9.33334,-4.333334 16,-7 6.66666,-2.666666 13,-3.666666 19,-3 24,0 44.66667,15 62,45 6,10.666664 13.66667,33.33333 23,68 9.33333,34.66667 18.66667,70.66666 28,108 9.33333,37.33334 14.66666,59.33334 16,66 3.33334,18 5,31 5,39 0,18.66666 -5,32 -15,40 -10,8 -21.33333,12 -34,12 -26.66667,0 -51.66667,-10.66666 -75,-32 -23.33334,-21.33334 -39.66666,-48.66666 -49,-82 -1.333336,-6 -3,-9.33334 -5,-10 -2,-0.66666 -7.333336,-1.33334 -16,-2 H 58 c -4,4 -6,7.66666 -6,11 z"
       style="fill:#000000;fill-opacity:1;fill-rule:nonzero;stroke:#000000;stroke-width:1;stroke-linecap:butt;stroke-linejoin:miter;stroke-miterlimit:10;stroke-dasharray:none;stroke-opacity:0.1185"
       transform="matrix(0.01263669,0,0,-0.01263669,32.428744,26.417186)"
       clip-path="url(#clipPath8)" />
    <path
       id="path9"
       d="m 347,338 c -6.66666,0 -24.33334,3.66666 -53,11 -28.66666,7.33334 -49.66667,11 -63,11 -13.33333,0 -24.66667,-1.33334 -34,-4 -9.33333,-2.66666 -17,-6 -23,-10 -6,-4 -10,-7.66666 -12,-11 -2,-3.33334 -4.33333,-7 -7,-11 l -2,-4 c -2,-2 -7,-3 -15,-3 -14,0 -21,2.66666 -21,8 0,3.33334 1,8 3,14 8.66667,26 23,48.33334 43,67 20,18.66666 42,30 66,34 8,1.33334 13.66667,2 17,2 16.66666,0 31.66666,-5.66666 45,-17 13.33334,-11.33334 26,-22.33334 38,-33 12,-10.66666 24.66666,-16.33334 38,-17 14.66666,0 29.33334,11 44,33 14.66666,22 22.33334,33 23,33 0.66666,0.66666 5.66666,1 15,1 h 13 c 4,-4 6,-6.66666 6,-8 0,-2.66666 -1.66666,-7.33334 -5,-14 -3.33334,-6.66666 -8,-13.66666 -14,-21 -6,-7.33334 -11.66666,-14.66666 -17,-22 -5.33334,-7.33334 -10,-13.66666 -14,-19 l -7,-9 C 382.33334,315 337,270 275,214 213,158 174.66667,122 160,106 l -12,-12 15,-1 c 14.66667,0 36,-3.666664 64,-11 28,-7.333336 49,-11 63,-11 25.33334,0 48.66666,6.333336 70,19 21.33334,12.66666 35.33334,29.33333 42,50 2.66666,6 5,9.66667 7,11 2,1.33333 7,2 15,2 12.66666,0 19,-3.33333 19,-10 0,-3.33333 -0.33334,-6.33333 -1,-9 C 430.66666,92.666664 408.66666,58.333336 376,31 343.33334,3.666666 310.66666,-10.333333 278,-11 260.66666,-11 245.33333,-5.333334 232,6 218.66667,17.333334 205.66667,28.666666 193,40 180.33333,51.333336 167.66667,57 155,57 125.66666,57 99.333336,37 76,-3 72,-8.333334 66.333336,-11 59,-11 H 54 41 c -4,4 -6,7 -6,9 0,10 19.333332,38.666664 58,86 26,30 70,73.33333 132,130 62,56.66666 100.33334,92.66666 115,108 8,10.66666 10.33334,16 7,16 z"
       style="fill:#000000;fill-opacity:1;fill-rule:nonzero;stroke:#000000;stroke-width:1;stroke-linecap:butt;stroke-linejoin:miter;stroke-miterlimit:10;stroke-dasharray:none;stroke-opacity:0.1183"
       transform="matrix(0.01261669,0,0,-0.01261669,165.37126,39.88678)"
       clip-path="url(#clipPath10)" />
    <path
       id="path11"
       d="M 383.26001,162.03 H 620"
       style="fill:none;stroke:#000000;stroke-width:1.22236;stroke-linecap:butt;stroke-linejoin:miter;stroke-miterlimit:10;stroke-dasharray:none;stroke-opacity:1"
       transform="matrix(0.89826022,0,0,0.89826022,-56.049879,-104.47652)"
       clip-path="url(#clipPath12)" />
    <path
       id="path13"
       d="m 52,289 c 4.666668,28 22.666664,60.33334 54,97 31.33333,36.66666 70,55.33334 116,56 23.33333,0 44.66666,-6 64,-18 19.33334,-12 33.66666,-27 43,-45 28,42 61.66666,63 101,63 24.66666,0 46,-7.33334 64,-22 18,-14.66666 27.33331,-34.33334 28,-59 0,-19.33334 -4.66669,-35 -14,-47 -9.33334,-12 -18.33334,-19.33334 -27,-22 -8.66666,-2.66666 -16.33334,-4 -23,-4 -12.66666,0 -23,3.66666 -31,11 -8,7.33334 -12,17 -12,29 0,30.66666 16.66666,51.66666 50,63 -7.33334,8.66666 -20.66666,13 -40,13 -8.66666,0 -15,-0.66666 -19,-2 -25.33334,-10.66666 -44,-32.66666 -56,-66 -40,-147.33334 -60,-233.33333 -60,-258 0,-18.666668 5.33334,-32 16,-40 10.66666,-8 22.33334,-12 35,-12 24.66666,0 49,11 73,33 24,22 40.33334,49 49,81 2,6.66667 4,10.33333 6,11 2,0.66667 7.33334,1.33333 16,2 h 4 c 10,0 15,-2.66667 15,-8 0,-0.66667 -0.66666,-4.33333 -2,-11 C 491.33334,96 470.66666,62.333336 440,33 409.33334,3.666666 373.66666,-11 333,-11 286.33334,-11 251,10 227,52 199.66667,10.666664 168.33334,-10 133,-10 h -6 C 94.333328,-10 71,-1.333334 57,16 43,33.333336 35.666668,51.666664 35,71 c 0,21.333336 6.333332,38.66666 19,52 12.666664,13.33333 27.666664,20 45,20 28.66667,0 43,-14 43,-42 C 142,87.666664 138,76 130,66 122,56 114.33334,49.333332 107,46 99.666664,42.666668 95.333336,41 94,41 l -3,-1 c 0,-0.666668 2,-2 6,-4 4,-2 9.33334,-4.333334 16,-7 6.66666,-2.666666 13,-3.666666 19,-3 24,0 44.66667,15 62,45 6,10.666664 13.66667,33.33333 23,68 9.33333,34.66667 18.66667,70.66666 28,108 9.33333,37.33334 14.66666,59.33334 16,66 3.33334,18 5,31 5,39 0,18.66666 -5,32 -15,40 -10,8 -21.33333,12 -34,12 -26.66667,0 -51.66667,-10.66666 -75,-32 -23.33334,-21.33334 -39.66666,-48.66666 -49,-82 -1.333336,-6 -3,-9.33334 -5,-10 -2,-0.66666 -7.333336,-1.33334 -16,-2 H 58 c -4,4 -6,7.66666 -6,11 z"
       style="fill:#000000;fill-opacity:1;fill-rule:nonzero;stroke:#000000;stroke-width:1;stroke-linecap:butt;stroke-linejoin:miter;stroke-miterlimit:10;stroke-dasharray:none;stroke-opacity:0.1185"
       transform="matrix(0.01263813,0,0,-0.01263813,286.64667,62.808817)"
       clip-path="url(#clipPath14)" />
    <path
       id="path15"
       d="m 56,347 c 0,8.66666 4.666664,15.33334 14,20 h 637 c 10,-5.33334 15,-12 15,-20 0,-7.33334 -4.66669,-13.66666 -14,-19 L 390,327 H 72 c -10.666668,3.33334 -16,10 -16,20 z m 0,-194 c 0,10 5.333332,16.66667 16,20 h 636 c 9.33331,-6.66667 14,-13.33333 14,-20 0,-8.66667 -5,-15.33333 -15,-20 H 70 c -9.333336,4.66667 -14,11.33333 -14,20 z"
       style="fill:#000000;fill-opacity:1;fill-rule:nonzero;stroke:#000000;stroke-width:1;stroke-linecap:butt;stroke-linejoin:miter;stroke-miterlimit:10;stroke-dasharray:none;stroke-opacity:0.1185"
       transform="matrix(0.01263813,0,0,-0.01263813,297.38657,62.808817)"
       clip-path="url(#clipPath16)" />
    <path
       id="path17"
       d="m 118,-162 c 1.33334,0 3.33334,-0.66667 6,-2 2.66666,-1.33333 6.33333,-2.33333 11,-3 4.66667,-0.66667 8.66667,-1 12,-1 8.66667,0 16.66667,4.33333 24,13 7.33333,8.66667 12.66667,18.33333 16,29 6.66667,18 18,69 34,153 16,84 31.33333,164 46,240 14.66666,76 22,114.33334 22,115 v 3 h -47 c -31.33333,0 -48,0.66666 -50,2 -2.66667,2 -4,5.33334 -4,10 l 7,28 c 1.33333,3.33334 4,5 8,5 4,0 19.66667,0.33334 47,1 32,0 48,0.33334 48,1 0,1.33334 3,18 9,50 6,32 10,51.33331 12,58 24.66666,110 73.33331,165 146,165 24.66666,-1.33331 45,-8.66669 61,-22 16,-13.33331 24,-31 24,-53 0,-24 -7,-41.33331 -21,-52 -14,-10.66669 -28,-16.33331 -42,-17 -29.33334,0 -44,14 -44,42 0,12.66669 3.66666,23.66669 11,33 7.33334,9.33331 15.33334,16.33331 24,21 l 9,5 c -10.66666,4 -20.66666,6 -30,6 -8,0 -15.66666,-3.33331 -23,-10 -7.33334,-6.66669 -12.33334,-16 -15,-28 -4.66666,-19.33331 -10,-45.33331 -16,-78 -6,-32.66669 -11.33334,-60.33334 -16,-83 -4.66666,-22.66666 -7,-34.66666 -7,-36 0,-1.33334 18.33334,-2 55,-2 30,0 47.33334,-0.33334 52,-1 4.66666,-0.66666 8.33334,-2.66666 11,-6 0.66666,-2.66666 0,-8.33334 -2,-17 -2,-8.66666 -3.66666,-14 -5,-16 -1.33334,-3.33334 -4.33334,-5 -9,-5 -4.66666,0 -22.66666,-0.33334 -54,-1 H 372 L 349,263 C 317,97.666656 294.66666,-5.6666641 282,-47 c -18,-56.66667 -41.33333,-98.66667 -70,-126 -24.66667,-21.33333 -49,-32 -73,-32 -21.33334,0 -40.666664,6.33333 -58,19 -17.333336,12.66667 -26,30.66667 -26,54 0,24.66667 7,42.666664 21,54 14,11.333336 28,17 42,17 29.33333,0 44,-14 44,-42 0,-12.66666 -3.66667,-23.66666 -11,-33 -7.33333,-9.33333 -15.33333,-16.33333 -24,-21 z"
       style="fill:#000000;fill-opacity:1;fill-rule:nonzero;stroke:#000000;stroke-width:1;stroke-linecap:butt;stroke-linejoin:miter;stroke-miterlimit:10;stroke-dasharray:none;stroke-opacity:0.1185"
       transform="matrix(0.01263813,0,0,-0.01263813,310.72989,62.808817)"
       clip-path="url(#clipPath18)" />
    <path
       id="path19"
       d="m 109,429 c -18,0 -32.333336,6 -43,18 -10.666668,12 -16,26.66666 -16,44 0,47.33331 17.666664,88.33331 53,123 35.33334,34.66669 79.33333,52 132,52 60.66666,0 111.33334,-18.66669 152,-56 40.66666,-37.33331 61.33334,-85.66669 62,-145 0,-28.66666 -6.66666,-56 -20,-82 -13.33334,-26 -29.33334,-48.66666 -48,-68 -18.66666,-19.33334 -45.33334,-44 -80,-74 -24,-20.66667 -57.33333,-51.33333 -100,-92 l -59,-56 76,-1 c 104.66669,0 160.33334,1.666664 167,5 4.66666,1.333336 12.66666,31 24,89 v 3 h 40 v -3 C 448.33334,184 444,153.66667 436,95 428,36.333332 423,5.666667 421,3 V 0 H 50 v 19 12 c 0,4.666668 2,9.666668 6,15 4,5.333332 14,17 30,35 19.33334,21.33334 36,40 50,56 6,6.66667 17.33333,19 34,37 16.66667,18 28,30.33333 34,37 6,6.66667 15.66667,17.66667 29,33 13.33333,15.33334 22.66667,26.66666 28,34 5.33334,7.33334 13,17.33334 23,30 10,12.66666 17,23.33334 21,32 4,8.66666 9,18.33334 15,29 6,10.66666 10.33334,21.33334 13,32 2.66666,10.66666 5,20.66666 7,30 2,9.33334 3,20.33334 3,33 0,42 -11.33334,78.33331 -34,109 -22.66666,30.66669 -55,46 -97,46 -22,0 -41.33333,-5.66669 -58,-17 -16.66667,-11.33331 -28.33334,-22.33331 -35,-33 -6.66666,-10.66669 -10,-17 -10,-19 0,-0.66669 1.66666,-1 5,-1 12,0 24.33333,-4.66669 37,-14 12.66667,-9.33331 19,-24.66666 19,-46 0,-16.66666 -5.33333,-30.66666 -16,-42 -10.66667,-11.33334 -25.66667,-17.33334 -45,-18 z"
       style="fill:#000000;fill-opacity:1;fill-rule:nonzero;stroke:#000000;stroke-width:1;stroke-linecap:butt;stroke-linejoin:miter;stroke-miterlimit:10;stroke-dasharray:none;stroke-opacity:0.0838"
       transform="matrix(0.00893516,0,0,-0.00893516,318.76774,58.221178)"
       clip-path="url(#clipPath20)" />
    <path
       id="path21"
       d="m 94,250 c 0,46 3.333336,89.66666 10,131 6.66666,41.33334 14.33334,77 23,107 8.66667,30 21,59.33331 37,88 16,28.66669 28.66667,51 38,67 9.33333,16 23.33333,33.33331 42,52 18.66666,18.66669 29.66666,30 33,34 3.33334,4 11.66666,11 25,21 h 13 4 c 9.33334,0 14,-3 14,-9 0,-2 -5.66666,-9 -17,-21 -11.33334,-12 -25,-29.66669 -41,-53 -16,-23.33331 -32.33333,-52 -49,-86 -16.66667,-34 -30.66667,-80 -42,-138 -11.33333,-58 -17,-122.33331 -17,-193 0,-70.66667 5.66667,-134.66666 17,-192 11.33333,-57.33333588 25,-103.666664 41,-139 16,-35.33334 32.33334,-64 49,-86 16.66666,-22 30.66666,-39.66667 42,-53 11.33334,-13.33333 17,-20.33333 17,-21 0,-6 -5,-9 -15,-9 h -3 -13 l -28,24 C 211.33333,-169.33333 165.66667,-98.666672 137,-14 108.33333,70.666672 94,158.66666 94,250 Z"
       style="fill:#000000;fill-opacity:1;fill-rule:nonzero;stroke:#000000;stroke-width:1;stroke-linecap:butt;stroke-linejoin:miter;stroke-miterlimit:10;stroke-dasharray:none;stroke-opacity:0.1185"
       transform="matrix(0.01263813,0,0,-0.01263813,323.86723,62.808817)"
       clip-path="url(#clipPath22)" />
    <path
       id="path23"
       d="m 52,289 c 4.666668,28 22.666664,60.33334 54,97 31.33333,36.66666 70,55.33334 116,56 23.33333,0 44.66666,-6 64,-18 19.33334,-12 33.66666,-27 43,-45 28,42 61.66666,63 101,63 24.66666,0 46,-7.33334 64,-22 18,-14.66666 27.33331,-34.33334 28,-59 0,-19.33334 -4.66669,-35 -14,-47 -9.33334,-12 -18.33334,-19.33334 -27,-22 -8.66666,-2.66666 -16.33334,-4 -23,-4 -12.66666,0 -23,3.66666 -31,11 -8,7.33334 -12,17 -12,29 0,30.66666 16.66666,51.66666 50,63 -7.33334,8.66666 -20.66666,13 -40,13 -8.66666,0 -15,-0.66666 -19,-2 -25.33334,-10.66666 -44,-32.66666 -56,-66 -40,-147.33334 -60,-233.33333 -60,-258 0,-18.666668 5.33334,-32 16,-40 10.66666,-8 22.33334,-12 35,-12 24.66666,0 49,11 73,33 24,22 40.33334,49 49,81 2,6.66667 4,10.33333 6,11 2,0.66667 7.33334,1.33333 16,2 h 4 c 10,0 15,-2.66667 15,-8 0,-0.66667 -0.66666,-4.33333 -2,-11 C 491.33334,96 470.66666,62.333336 440,33 409.33334,3.666666 373.66666,-11 333,-11 286.33334,-11 251,10 227,52 199.66667,10.666664 168.33334,-10 133,-10 h -6 C 94.333328,-10 71,-1.333334 57,16 43,33.333336 35.666668,51.666664 35,71 c 0,21.333336 6.333332,38.66666 19,52 12.666664,13.33333 27.666664,20 45,20 28.66667,0 43,-14 43,-42 C 142,87.666664 138,76 130,66 122,56 114.33334,49.333332 107,46 99.666664,42.666668 95.333336,41 94,41 l -3,-1 c 0,-0.666668 2,-2 6,-4 4,-2 9.33334,-4.333334 16,-7 6.66666,-2.666666 13,-3.666666 19,-3 24,0 44.66667,15 62,45 6,10.666664 13.66667,33.33333 23,68 9.33333,34.66667 18.66667,70.66666 28,108 9.33333,37.33334 14.66666,59.33334 16,66 3.33334,18 5,31 5,39 0,18.66666 -5,32 -15,40 -10,8 -21.33333,12 -34,12 -26.66667,0 -51.66667,-10.66666 -75,-32 -23.33334,-21.33334 -39.66666,-48.66666 -49,-82 -1.333336,-6 -3,-9.33334 -5,-10 -2,-0.66666 -7.333336,-1.33334 -16,-2 H 58 c -4,4 -6,7.66666 -6,11 z"
       style="fill:#000000;fill-opacity:1;fill-rule:nonzero;stroke:#000000;stroke-width:1;stroke-linecap:butt;stroke-linejoin:miter;stroke-miterlimit:10;stroke-dasharray:none;stroke-opacity:0.1185"
       transform="matrix(0.01263813,0,0,-0.01263813,328.78346,62.808817)"
       clip-path="url(#clipPath24)" />
    <path
       id="path25"
       d="m 60,749 4,1 c 3.333336,0 6.666664,0 10,0 h 12 l 28,-24 c 62.66667,-56.66669 108.33333,-127.33331 137,-212 28.66666,-84.66669 43,-172.66666 43,-264 0,-45.33334 -3.33334,-89 -10,-131 -6.66666,-42 -14.33334,-77.666664 -23,-107 -8.66667,-29.333334 -21,-58.666664 -37,-88 -16,-29.33334 -28.66667,-51.66666 -38,-67 -9.33333,-15.33333 -23,-32.33333 -41,-51 -18,-18.66667 -28.66666,-29.66667 -32,-33 -3.33334,-3.33333 -11,-9.66667 -23,-19 -2,-2 -3.333336,-3.33333 -4,-4 H 74 c -5.333336,0 -9,0 -11,0 -2,0 -3.666668,1 -5,3 -1.333332,2 -2.333332,5 -3,9 0.666668,0.66667 4.333332,5 11,13 103.33334,107.33334 155,265.666656 155,475 0,209.33334 -51.66666,367.66669 -155,475 -6.666668,8 -10.333332,12.33331 -11,13 0,5.33331 1.666668,9 5,11 z"
       style="fill:#000000;fill-opacity:1;fill-rule:nonzero;stroke:#000000;stroke-width:1;stroke-linecap:butt;stroke-linejoin:miter;stroke-miterlimit:10;stroke-dasharray:none;stroke-opacity:0.1185"
       transform="matrix(0.01263813,0,0,-0.01263813,336.01249,62.808817)"
       clip-path="url(#clipPath26)" />
    <path
       id="path27"
       d="m 55,251 c 0,51.33334 19,96.33334 57,135 38,38.66666 83.66666,58 137,58 53.33334,0 99,-18.66666 137,-56 38,-37.33334 57.33334,-83.66666 58,-139 0,-52 -18.66666,-97.33333 -56,-136 C 350.66666,74.333328 304.66666,55 250,55 196.66666,55 151,74 113,112 75,150 55.666668,196.33333 55,251 Z"
       style="fill:#000000;fill-opacity:1;fill-rule:nonzero;stroke:#000000;stroke-width:1;stroke-linecap:butt;stroke-linejoin:miter;stroke-miterlimit:10;stroke-dasharray:none;stroke-opacity:0.1184"
       transform="matrix(0.01262818,0,0,-0.01262818,468.03342,44.238578)"
       clip-path="url(#clipPath28)" />
    <path
       id="path29"
       d="m 443.39001,151.42999 c 18.36667,-15.53999 41.12,-23.66333 68.25998,-24.36999 27.13999,-0.70667 49.47336,5.76001 67.00003,19.40001"
       style="fill:none;stroke:#000000;stroke-width:1;stroke-linecap:butt;stroke-linejoin:miter;stroke-miterlimit:10;stroke-dasharray:none;stroke-opacity:1"
       transform="matrix(0.89826022,0,0,0.89826022,-56.049879,-104.47652)"
       clip-path="url(#clipPath30)" />
    <path
       id="path31"
       d="m 582.78998,149.69 -7.66998,-1.54001 3.53002,-1.68998 0.76996,-3.84002 z"
       style="fill:#000000;fill-opacity:1;fill-rule:nonzero;stroke:#000000;stroke-width:1;stroke-linecap:butt;stroke-linejoin:miter;stroke-miterlimit:10;stroke-dasharray:none;stroke-opacity:1"
       transform="matrix(0.89826022,0,0,0.89826022,-56.049879,-104.47652)"
       clip-path="url(#clipPath32)" />
    <path
       id="path33"
       d="M 586.17999,172.63 C 566.97333,188.87666 544.42664,197 518.53998,197 c -25.88666,0 -49.97666,-6.99667 -72.26999,-20.99001"
       style="fill:none;stroke:#000000;stroke-width:1;stroke-linecap:butt;stroke-linejoin:miter;stroke-miterlimit:10;stroke-dasharray:none;stroke-opacity:1"
       transform="matrix(0.89826022,0,0,0.89826022,-56.049879,-104.47652)"
       clip-path="url(#clipPath34)" />
    <path
       id="path35"
       d="m 441.82999,173.22 7.79001,0.76 -3.35001,2.02999 -0.37,3.90001 z"
       style="fill:#000000;fill-opacity:1;fill-rule:nonzero;stroke:#000000;stroke-width:1;stroke-linecap:butt;stroke-linejoin:miter;stroke-miterlimit:10;stroke-dasharray:none;stroke-opacity:1"
       transform="matrix(0.89826022,0,0,0.89826022,-56.049879,-104.47652)"
       clip-path="url(#clipPath36)" />
    <path
       id="path37"
       d="m 118,-162 c 1.33334,0 3.33334,-0.66667 6,-2 2.66666,-1.33333 6.33333,-2.33333 11,-3 4.66667,-0.66667 8.66667,-1 12,-1 8.66667,0 16.66667,4.33333 24,13 7.33333,8.66667 12.66667,18.33333 16,29 6.66667,18 18,69 34,153 16,84 31.33333,164 46,240 14.66666,76 22,114.33334 22,115 v 3 h -47 c -31.33333,0 -48,0.66666 -50,2 -2.66667,2 -4,5.33334 -4,10 l 7,28 c 1.33333,3.33334 4,5 8,5 4,0 19.66667,0.33334 47,1 32,0 48,0.33334 48,1 0,1.33334 3,18 9,50 6,32 10,51.33331 12,58 24.66666,110 73.33331,165 146,165 24.66666,-1.33331 45,-8.66669 61,-22 16,-13.33331 24,-31 24,-53 0,-24 -7,-41.33331 -21,-52 -14,-10.66669 -28,-16.33331 -42,-17 -29.33334,0 -44,14 -44,42 0,12.66669 3.66666,23.66669 11,33 7.33334,9.33331 15.33334,16.33331 24,21 l 9,5 c -10.66666,4 -20.66666,6 -30,6 -8,0 -15.66666,-3.33331 -23,-10 -7.33334,-6.66669 -12.33334,-16 -15,-28 -4.66666,-19.33331 -10,-45.33331 -16,-78 -6,-32.66669 -11.33334,-60.33334 -16,-83 -4.66666,-22.66666 -7,-34.66666 -7,-36 0,-1.33334 18.33334,-2 55,-2 30,0 47.33334,-0.33334 52,-1 4.66666,-0.66666 8.33334,-2.66666 11,-6 0.66666,-2.66666 0,-8.33334 -2,-17 -2,-8.66666 -3.66666,-14 -5,-16 -1.33334,-3.33334 -4.33334,-5 -9,-5 -4.66666,0 -22.66666,-0.33334 -54,-1 H 372 L 349,263 C 317,97.666656 294.66666,-5.6666641 282,-47 c -18,-56.66667 -41.33333,-98.66667 -70,-126 -24.66667,-21.33333 -49,-32 -73,-32 -21.33334,0 -40.666664,6.33333 -58,19 -17.333336,12.66667 -26,30.66667 -26,54 0,24.66667 7,42.666664 21,54 14,11.333336 28,17 42,17 29.33333,0 44,-14 44,-42 0,-12.66666 -3.66667,-23.66666 -11,-33 -7.33333,-9.33333 -15.33333,-16.33333 -24,-21 z"
       style="fill:#000000;fill-opacity:1;fill-rule:nonzero;stroke:#000000;stroke-width:1;stroke-linecap:butt;stroke-linejoin:miter;stroke-miterlimit:10;stroke-dasharray:none;stroke-opacity:0.1184"
       transform="matrix(0.01263178,0,0,-0.01263178,472.59029,56.354158)"
       clip-path="url(#clipPath38)" />
    <path
       id="path39"
       d="m 94,250 c 0,46 3.333336,89.66666 10,131 6.66666,41.33334 14.33334,77 23,107 8.66667,30 21,59.33331 37,88 16,28.66669 28.66667,51 38,67 9.33333,16 23.33333,33.33331 42,52 18.66666,18.66669 29.66666,30 33,34 3.33334,4 11.66666,11 25,21 h 13 4 c 9.33334,0 14,-3 14,-9 0,-2 -5.66666,-9 -17,-21 -11.33334,-12 -25,-29.66669 -41,-53 -16,-23.33331 -32.33333,-52 -49,-86 -16.66667,-34 -30.66667,-80 -42,-138 -11.33333,-58 -17,-122.33331 -17,-193 0,-70.66667 5.66667,-134.66666 17,-192 11.33333,-57.33333588 25,-103.666664 41,-139 16,-35.33334 32.33334,-64 49,-86 16.66666,-22 30.66666,-39.66667 42,-53 11.33334,-13.33333 17,-20.33333 17,-21 0,-6 -5,-9 -15,-9 h -3 -13 l -28,24 C 211.33333,-169.33333 165.66667,-98.666672 137,-14 108.33333,70.666672 94,158.66666 94,250 Z"
       style="fill:#000000;fill-opacity:1;fill-rule:nonzero;stroke:#000000;stroke-width:1;stroke-linecap:butt;stroke-linejoin:miter;stroke-miterlimit:10;stroke-dasharray:none;stroke-opacity:0.1184"
       transform="matrix(0.01263178,0,0,-0.01263178,479.53775,56.354158)"
       clip-path="url(#clipPath40)" />
    <path
       id="path41"
       d="m 52,289 c 4.666668,28 22.666664,60.33334 54,97 31.33333,36.66666 70,55.33334 116,56 23.33333,0 44.66666,-6 64,-18 19.33334,-12 33.66666,-27 43,-45 28,42 61.66666,63 101,63 24.66666,0 46,-7.33334 64,-22 18,-14.66666 27.33331,-34.33334 28,-59 0,-19.33334 -4.66669,-35 -14,-47 -9.33334,-12 -18.33334,-19.33334 -27,-22 -8.66666,-2.66666 -16.33334,-4 -23,-4 -12.66666,0 -23,3.66666 -31,11 -8,7.33334 -12,17 -12,29 0,30.66666 16.66666,51.66666 50,63 -7.33334,8.66666 -20.66666,13 -40,13 -8.66666,0 -15,-0.66666 -19,-2 -25.33334,-10.66666 -44,-32.66666 -56,-66 -40,-147.33334 -60,-233.33333 -60,-258 0,-18.666668 5.33334,-32 16,-40 10.66666,-8 22.33334,-12 35,-12 24.66666,0 49,11 73,33 24,22 40.33334,49 49,81 2,6.66667 4,10.33333 6,11 2,0.66667 7.33334,1.33333 16,2 h 4 c 10,0 15,-2.66667 15,-8 0,-0.66667 -0.66666,-4.33333 -2,-11 C 491.33334,96 470.66666,62.333336 440,33 409.33334,3.666666 373.66666,-11 333,-11 286.33334,-11 251,10 227,52 199.66667,10.666664 168.33334,-10 133,-10 h -6 C 94.333328,-10 71,-1.333334 57,16 43,33.333336 35.666668,51.666664 35,71 c 0,21.333336 6.333332,38.66666 19,52 12.666664,13.33333 27.666664,20 45,20 28.66667,0 43,-14 43,-42 C 142,87.666664 138,76 130,66 122,56 114.33334,49.333332 107,46 99.666664,42.666668 95.333336,41 94,41 l -3,-1 c 0,-0.666668 2,-2 6,-4 4,-2 9.33334,-4.333334 16,-7 6.66666,-2.666666 13,-3.666666 19,-3 24,0 44.66667,15 62,45 6,10.666664 13.66667,33.33333 23,68 9.33333,34.66667 18.66667,70.66666 28,108 9.33333,37.33334 14.66666,59.33334 16,66 3.33334,18 5,31 5,39 0,18.66666 -5,32 -15,40 -10,8 -21.33333,12 -34,12 -26.66667,0 -51.66667,-10.66666 -75,-32 -23.33334,-21.33334 -39.66666,-48.66666 -49,-82 -1.333336,-6 -3,-9.33334 -5,-10 -2,-0.66666 -7.333336,-1.33334 -16,-2 H 58 c -4,4 -6,7.66666 -6,11 z"
       style="fill:#000000;fill-opacity:1;fill-rule:nonzero;stroke:#000000;stroke-width:1;stroke-linecap:butt;stroke-linejoin:miter;stroke-miterlimit:10;stroke-dasharray:none;stroke-opacity:0.1184"
       transform="matrix(0.01263178,0,0,-0.01263178,484.4515,56.354158)"
       clip-path="url(#clipPath42)" />
    <path
       id="path43"
       d="m 60,749 4,1 c 3.333336,0 6.666664,0 10,0 h 12 l 28,-24 c 62.66667,-56.66669 108.33333,-127.33331 137,-212 28.66666,-84.66669 43,-172.66666 43,-264 0,-45.33334 -3.33334,-89 -10,-131 -6.66666,-42 -14.33334,-77.666664 -23,-107 -8.66667,-29.333334 -21,-58.666664 -37,-88 -16,-29.33334 -28.66667,-51.66666 -38,-67 -9.33333,-15.33333 -23,-32.33333 -41,-51 -18,-18.66667 -28.66666,-29.66667 -32,-33 -3.33334,-3.33333 -11,-9.66667 -23,-19 -2,-2 -3.333336,-3.33333 -4,-4 H 74 c -5.333336,0 -9,0 -11,0 -2,0 -3.666668,1 -5,3 -1.333332,2 -2.333332,5 -3,9 0.666668,0.66667 4.333332,5 11,13 103.33334,107.33334 155,265.666656 155,475 0,209.33334 -51.66666,367.66669 -155,475 -6.666668,8 -10.333332,12.33331 -11,13 0,5.33331 1.666668,9 5,11 z"
       style="fill:#000000;fill-opacity:1;fill-rule:nonzero;stroke:#000000;stroke-width:1;stroke-linecap:butt;stroke-linejoin:miter;stroke-miterlimit:10;stroke-dasharray:none;stroke-opacity:0.1184"
       transform="matrix(0.01263178,0,0,-0.01263178,491.67689,56.354158)"
       clip-path="url(#clipPath44)" />
    <path
       id="path45"
       d="m 94,250 c 0,46 3.333336,89.66666 10,131 6.66666,41.33334 14.33334,77 23,107 8.66667,30 21,59.33331 37,88 16,28.66669 28.66667,51 38,67 9.33333,16 23.33333,33.33331 42,52 18.66666,18.66669 29.66666,30 33,34 3.33334,4 11.66666,11 25,21 h 13 4 c 9.33334,0 14,-3 14,-9 0,-2 -5.66666,-9 -17,-21 -11.33334,-12 -25,-29.66669 -41,-53 -16,-23.33331 -32.33333,-52 -49,-86 -16.66667,-34 -30.66667,-80 -42,-138 -11.33333,-58 -17,-122.33331 -17,-193 0,-70.66667 5.66667,-134.66666 17,-192 11.33333,-57.33333588 25,-103.666664 41,-139 16,-35.33334 32.33334,-64 49,-86 16.66666,-22 30.66666,-39.66667 42,-53 11.33334,-13.33333 17,-20.33333 17,-21 0,-6 -5,-9 -15,-9 h -3 -13 l -28,24 C 211.33333,-169.33333 165.66667,-98.666672 137,-14 108.33333,70.666672 94,158.66666 94,250 Z"
       style="fill:#ff0000;fill-opacity:1;fill-rule:nonzero;stroke:#ff0000;stroke-width:1;stroke-linecap:butt;stroke-linejoin:miter;stroke-miterlimit:10;stroke-dasharray:none;stroke-opacity:0.0886"
       transform="matrix(0.00945309,0,0,-0.00945309,313.58417,43.20139)"
       clip-path="url(#clipPath46)" />
    <path
       id="path47"
       d="m 60,749 4,1 c 3.333336,0 6.666664,0 10,0 h 12 l 28,-24 c 62.66667,-56.66669 108.33333,-127.33331 137,-212 28.66666,-84.66669 43,-172.66666 43,-264 0,-45.33334 -3.33334,-89 -10,-131 -6.66666,-42 -14.33334,-77.666664 -23,-107 -8.66667,-29.333334 -21,-58.666664 -37,-88 -16,-29.33334 -28.66667,-51.66666 -38,-67 -9.33333,-15.33333 -23,-32.33333 -41,-51 -18,-18.66667 -28.66666,-29.66667 -32,-33 -3.33334,-3.33333 -11,-9.66667 -23,-19 -2,-2 -3.333336,-3.33333 -4,-4 H 74 c -5.333336,0 -9,0 -11,0 -2,0 -3.666668,1 -5,3 -1.333332,2 -2.333332,5 -3,9 0.666668,0.66667 4.333332,5 11,13 103.33334,107.33334 155,265.666656 155,475 0,209.33334 -51.66666,367.66669 -155,475 -6.666668,8 -10.333332,12.33331 -11,13 0,5.33331 1.666668,9 5,11 z"
       style="fill:#ff0000;fill-opacity:1;fill-rule:nonzero;stroke:#ff0000;stroke-width:1;stroke-linecap:butt;stroke-linejoin:miter;stroke-miterlimit:10;stroke-dasharray:none;stroke-opacity:0.0886"
       transform="matrix(0.00945309,0,0,-0.00945309,362.09022,43.20139)"
       clip-path="url(#clipPath48)" />
    <path
       id="path49"
       d="M 413.32001,162.03 H 469.69"
       style="fill:none;stroke:#ff0000;stroke-width:0.887212;stroke-linecap:butt;stroke-linejoin:miter;stroke-miterlimit:10;stroke-dasharray:none;stroke-opacity:1"
       transform="matrix(0.88043528,0,0,0.89826022,-48.988303,-104.47652)"
       clip-path="url(#clipPath50)" />
    <path
       id="path51"
       d="m 55,251 c 0,51.33334 19,96.33334 57,135 38,38.66666 83.66666,58 137,58 53.33334,0 99,-18.66666 137,-56 38,-37.33334 57.33334,-83.66666 58,-139 0,-52 -18.66666,-97.33333 -56,-136 C 350.66666,74.333328 304.66666,55 250,55 196.66666,55 151,74 113,112 75,150 55.666668,196.33333 55,251 Z"
       style="fill:#000000;fill-opacity:1;fill-rule:nonzero;stroke:#000000;stroke-width:1;stroke-linecap:butt;stroke-linejoin:miter;stroke-miterlimit:10;stroke-dasharray:none;stroke-opacity:0.1184"
       transform="matrix(0.01262818,0,0,-0.01262818,336.99229,44.238578)"
       clip-path="url(#clipPath52)" />
    <path
       id="path53"
       d="m 107,637 c -22.666672,0 -34.666664,1.33331 -36,4 -0.666664,1.33331 -1,4 -1,8 0,16 3.666664,27 11,33 1.333336,0.66669 7,1 17,1 27.33334,-1.33331 72.66666,-2 136,-2 22.66666,0 43.66666,0 63,0 19.33334,0 34.33334,0.33331 45,1 10.66666,0.66669 17.33334,0.66669 20,0 10.66666,0 16,-3.33331 16,-10 0,-1.33331 -0.66666,-6 -2,-14 -3.33334,-11.33331 -6.66666,-18 -10,-20 h -2 c -1.33334,0 -3,0 -5,0 -2,0 -4.33334,0 -7,0 -2.66666,0 -5.66666,-0.33331 -9,-1 -3.33334,-0.66669 -6.33334,-0.66669 -9,0 -26,-0.66669 -42.66666,-1.66669 -50,-3 -7.33334,-1.33331 -13.33334,-5 -18,-11 -0.66666,-1.33331 -10,-36.33331 -28,-105 -18,-68.66669 -36,-140.66666 -54,-216 -18,-75.33334 -28,-119.66667 -30,-133 -1.33333,-9.33333 -2,-19 -2,-29 0,-36 10.33333,-64.333328 31,-85 20.66667,-20.666668 49.33333,-31 86,-31 44.66666,0 89.33334,15 134,45 44.66666,30 77.33334,75.33333 98,136 l 51,201 c 31.33331,128 47,194.66669 47,200 0,18 -21.33331,28.33331 -64,31 -16,0 -24,3.66669 -24,11 0,1.33331 0.66666,5.33331 2,12 2.66669,10.66669 4.66669,17 6,19 1.33331,2 4.66669,3.33331 10,4 2,0 12.66669,-0.33331 32,-1 19.33331,-0.66669 47.33331,-1.33331 84,-2 34,0 60,0.33331 78,1 18,0.66669 27.66669,1 29,1 10,0 15,-3.33331 15,-10 0,-14.66669 -2.66669,-24.66669 -8,-30 -2,-3.33331 -9.33331,-5 -22,-5 -47.33331,-2.66669 -77,-16 -89,-40 -1.33331,-3.33331 -18,-67.66669 -50,-193 C 570.66669,291.33331 554,225 548,205 526,138.33333 487.66666,84 433,42 378.33334,0 321.66666,-21.333334 263,-22 201.66666,-22 152.66667,-3.3333359 116,34 79.333328,71.333336 60.666668,115.66666 60,167 v 16 c 0,12 18.333328,91.33331 55,238 32.66667,134 49,203 49,207 0,4.66669 -19,7.66669 -57,9 z"
       style="fill:#ff0000;fill-opacity:1;fill-rule:nonzero;stroke:#ff0000;stroke-width:1;stroke-linecap:butt;stroke-linejoin:miter;stroke-miterlimit:10;stroke-dasharray:none;stroke-opacity:0.0888"
       transform="matrix(0.00947633,0,0,-0.00947633,324.36426,29.099628)"
       clip-path="url(#clipPath54)" />
  </g>
</svg>
